<svg xmlns="http://www.w3.org/2000/svg" version="1.1" xmlns:xlink="http://www.w3.org/1999/xlink" width="41" height="51"><svg width="41" height="51" viewBox="0 0 41 51" fill="none" xmlns="http://www.w3.org/2000/svg">
<path d="M28.56 6.75C31.0202 6.60119 36.5312 7.375 38.893 11.6607C39.8771 13.4464 40.8612 11.0655 40.3691 8.08929C38.893 4.51786 32.9884 0.500001 26.5918 0.5C19.6856 0.499999 11.8304 3.625 11.3383 13C10.9447 20.5 18.6917 25.0536 22.6554 27.2857C27.4119 29.9643 32.4964 35.3214 26.0998 40.2321C18.8065 45.8312 11.3384 43.0595 9.37016 41.5714C8.05804 40.6786 7.40197 38.7143 11.3383 38C15.2747 37.2857 15.0368 37.4678 16.7509 36.6607C18.4649 35.8536 18.7191 32.2857 18.7191 30.8571C18.7191 29.4286 15.7668 30.1017 12.8145 30.4107C8.55009 30.8571 0.906955 33.5357 0.513318 40.6786C0.0212706 49.6071 13.3065 50.5 16.7509 50.5C20.1952 50.5 37.4168 49.1607 37.9089 35.3214C38.147 28.625 32.9884 25.0536 28.0679 21.9286C23.6395 19.1161 20.1132 17.9107 19.7032 13.4464C19.2128 8.10779 25.1157 6.75 28.56 6.75Z" fill="black" stroke="black"></path>
</svg><style>@media (prefers-color-scheme: light) { :root { filter: none; } }
@media (prefers-color-scheme: dark) { :root { filter: none; } }
</style></svg>