<svg width="393" height="295" viewBox="0 0 393 295" fill="none" xmlns="http://www.w3.org/2000/svg">
<path fill-rule="evenodd" clip-rule="evenodd" d="M353.019 231.042C353.792 233.143 355.003 235.032 356.062 236.997C349.783 242.003 342.822 246.576 335.206 250.446C335.083 245.628 334.851 240.526 334.759 235.325C336.691 234.883 338.638 234.536 340.441 233.638C340.688 233.515 340.648 233.183 340.491 233.016C338.8 231.215 336.703 229.897 334.742 228.423C334.811 224.005 335.065 219.574 335.644 215.24C338.137 215.192 340.633 215.387 343.129 215.291C343.438 215.28 343.587 214.941 343.442 214.687C341.889 211.957 339.652 209.272 337.159 207.233C338.656 201.303 341.017 195.709 344.665 190.762C347.438 191.345 350.186 192.066 353.017 192.315C353.3 192.34 353.573 192.124 353.476 191.814C352.693 189.3 351.223 187.115 349.787 184.932C354.396 180.428 360.219 176.273 366.345 172.798C367.396 174.099 368.51 175.343 369.779 176.458C370.046 176.693 370.426 176.483 370.434 176.15C370.476 174.372 370.158 172.635 369.857 170.897C377.066 167.177 384.457 164.462 390.615 163.279C394.126 174.902 391.865 187.537 387.821 197.498C385.303 196.07 382.551 194.778 379.873 195.297C379.681 195.335 379.534 195.608 379.615 195.79C380.981 198.84 382.613 201.741 384.454 204.522C384.056 205.231 383.653 205.913 383.246 206.568C380.816 210.54 377.999 214.519 374.828 218.426C372.644 217.353 370.501 216.201 368.059 215.825C367.776 215.782 367.502 216.03 367.6 216.326C368.388 218.694 369.817 220.732 371.023 222.892C367.34 226.998 363.255 230.985 358.792 234.756C357.043 233.428 355.277 232.122 353.656 230.635C353.378 230.378 352.883 230.672 353.019 231.042Z" fill="#AAF0D1"/>
<path d="M338.27 245.525C338.27 245.525 341.935 239.895 347.432 231.45C348.807 229.339 350.296 227.051 351.87 224.633C353.479 222.238 355.175 219.711 356.931 217.097C360.445 211.878 364.195 206.31 367.944 200.742C371.719 195.185 375.494 189.628 379.033 184.419C382.583 179.218 385.857 174.331 388.665 170.142C394.288 161.767 398.036 156.183 398.036 156.183L393.376 153.268C393.376 153.268 389.926 159.022 384.752 167.655C382.166 171.973 379.151 177.013 375.871 182.39C372.603 187.774 369.117 193.516 365.632 199.257C362.167 205.018 358.703 210.779 355.455 216.179C353.835 218.88 352.269 221.49 350.784 223.966C349.335 226.463 347.966 228.823 346.701 231.001C341.643 239.715 338.27 245.525 338.27 245.525Z" fill="#6BAA89"/>
<path d="M340.721 223.895C340.721 223.895 341.61 223.534 342.945 222.992C343.279 222.856 343.64 222.709 344.022 222.554C344.402 222.389 344.823 222.28 345.247 222.131C346.096 221.852 347.003 221.554 347.909 221.256C348.825 220.954 349.74 220.652 350.598 220.37C351.026 220.22 351.448 220.109 351.833 219.943C352.221 219.786 352.589 219.636 352.927 219.498C354.287 218.943 355.194 218.573 355.194 218.573C355.597 218.409 355.79 217.949 355.625 217.546C355.461 217.144 355.001 216.951 354.599 217.115C354.574 217.125 354.55 217.136 354.527 217.149L354.45 217.19C354.45 217.19 353.619 217.631 352.374 218.294C352.062 218.46 351.723 218.641 351.365 218.831C351.01 219.031 350.602 219.184 350.198 219.374C349.379 219.74 348.507 220.13 347.634 220.52C346.752 220.914 345.871 221.308 345.044 221.678C344.636 221.869 344.227 222.023 343.866 222.225C343.502 222.418 343.158 222.601 342.839 222.769C341.569 223.445 340.721 223.895 340.721 223.895Z" fill="#6BAA89"/>
<path d="M344.422 202.396C344.422 202.396 344.768 202.358 345.372 202.293C345.978 202.23 346.841 202.163 347.882 202.136C349.962 202.058 352.734 202.155 355.523 202.183C356.92 202.187 358.32 202.17 359.64 202.084C360.958 201.99 362.194 201.855 363.247 201.641C363.776 201.547 364.257 201.441 364.681 201.318C365.106 201.209 365.477 201.113 365.775 201C366.376 200.792 366.72 200.674 366.72 200.674C367.13 200.533 367.348 200.086 367.207 199.675C367.066 199.265 366.618 199.046 366.208 199.188C366.192 199.194 366.175 199.2 366.159 199.207L366.101 199.231C366.101 199.231 365.796 199.361 365.261 199.588C364.998 199.712 364.66 199.824 364.274 199.952C363.89 200.094 363.448 200.226 362.956 200.348C361.981 200.621 360.805 200.834 359.534 201.016C358.26 201.19 356.883 201.304 355.502 201.398C352.736 201.567 349.946 201.667 347.866 201.891C346.827 201.992 345.961 202.121 345.364 202.226C344.764 202.334 344.422 202.396 344.422 202.396Z" fill="#6BAA89"/>
<path d="M358.463 184.293C358.463 184.293 359.528 184.42 361.125 184.611C362.717 184.815 364.841 185.105 366.981 185.345C368.054 185.439 369.125 185.567 370.142 185.605C370.649 185.629 371.139 185.67 371.607 185.675C372.076 185.677 372.518 185.678 372.928 185.679C373.747 185.705 374.435 185.605 374.917 185.587C375.4 185.554 375.676 185.534 375.676 185.534C376.109 185.504 376.436 185.128 376.406 184.695C376.376 184.262 376 183.935 375.567 183.964C375.544 183.966 375.52 183.969 375.497 183.973L375.432 183.983C375.432 183.983 375.176 184.024 374.728 184.096C374.276 184.153 373.642 184.309 372.853 184.356C372.459 184.391 372.033 184.429 371.583 184.469C371.131 184.506 370.651 184.509 370.155 184.531C369.162 184.586 368.095 184.557 367.029 184.561C364.894 184.518 362.752 184.424 361.142 184.366C359.536 184.322 358.463 184.293 358.463 184.293Z" fill="#6BAA89"/>
<path d="M380.755 176.852L386.709 188.331L382.188 176.209C382.036 175.802 381.582 175.596 381.176 175.747C380.769 175.899 380.562 176.352 380.714 176.759C380.725 176.788 380.736 176.816 380.75 176.842L380.755 176.852Z" fill="#6BAA89"/>
<path d="M370.862 194.148C370.862 194.148 371.32 195.079 372.005 196.476C372.177 196.825 372.362 197.203 372.559 197.603C372.754 198.003 372.999 198.417 373.231 198.849C373.705 199.707 374.209 200.623 374.714 201.538C375.265 202.423 375.816 203.307 376.332 204.136C376.598 204.546 376.824 204.959 377.092 205.319C377.351 205.684 377.597 206.027 377.823 206.345C378.726 207.612 379.328 208.458 379.328 208.458C379.328 208.458 378.81 207.56 378.03 206.214C377.835 205.879 377.626 205.515 377.403 205.13C377.172 204.752 376.986 204.317 376.762 203.888C376.33 203.021 375.869 202.098 375.409 201.174C374.999 200.23 374.59 199.286 374.205 198.402C374.018 197.957 373.82 197.541 373.664 197.123C373.506 196.706 373.357 196.311 373.219 195.948C372.668 194.493 372.301 193.523 372.301 193.523C372.147 193.117 371.693 192.913 371.288 193.066C370.881 193.219 370.677 193.673 370.83 194.079C370.841 194.103 370.852 194.127 370.862 194.148Z" fill="#6BAA89"/>
<path d="M357.895 214.25C357.895 214.25 358.162 215.012 358.598 216.166C358.817 216.745 359.073 217.418 359.374 218.127C359.657 218.842 360.01 219.587 360.344 220.336C360.716 221.07 361.058 221.815 361.45 222.479C361.81 223.158 362.198 223.762 362.532 224.277C362.846 224.802 363.185 225.192 363.387 225.484C363.599 225.77 363.72 225.933 363.72 225.933C363.72 225.933 363.62 225.756 363.443 225.446C363.278 225.131 362.992 224.711 362.745 224.153C362.478 223.607 362.17 222.971 361.898 222.263C361.595 221.571 361.348 220.797 361.073 220.042C360.835 219.269 360.581 218.507 360.389 217.774C360.18 217.047 360.01 216.364 359.866 215.779C359.578 214.605 359.402 213.804 359.402 213.804C359.309 213.38 358.889 213.111 358.464 213.204C358.039 213.298 357.771 213.717 357.864 214.141C357.871 214.172 357.879 214.2 357.888 214.228L357.895 214.25Z" fill="#6BAA89"/>
<path fill-rule="evenodd" clip-rule="evenodd" d="M107.245 134.472C100.072 121.858 100.589 112.734 104.144 107.157C109.887 98.1477 115.035 101.429 123.19 99.9918C136.848 98.4414 136.004 77.9948 151.454 81.2058C158.827 82.8891 160.307 86.2461 169.127 82.8189C175.02 81.1454 181.815 75.2195 187.311 81.7398C196.706 92.5548 182.18 98.3818 173.811 108.125C169.122 113.584 172.519 121.776 163.846 128.017C160.293 130.574 153.446 130.136 149.971 132.748C146.77 134.931 145.322 140.041 142.979 142.77C130.17 158.134 114.452 148.719 107.245 134.472Z" fill="#87CEEB"/>
<path d="M178.508 90.6108C178.508 90.6108 177.272 91.4173 175.109 92.8275C172.945 94.2412 169.877 96.2818 166.205 98.7546C162.53 101.226 158.243 104.108 153.65 107.197C151.342 108.73 148.961 110.319 146.517 111.901C144.087 113.504 141.577 115.074 139.079 116.667C136.551 118.212 134.047 119.8 131.514 121.262C130.251 121.998 129.013 122.754 127.761 123.454C126.507 124.154 125.27 124.846 124.052 125.527C122.843 126.223 121.607 126.83 120.421 127.464C119.222 128.078 118.075 128.726 116.911 129.272C114.594 130.383 112.428 131.49 110.349 132.363C109.317 132.817 108.33 133.252 107.39 133.665C106.445 134.072 105.525 134.406 104.672 134.746C102.958 135.413 101.473 136.021 100.203 136.414C97.6847 137.257 96.2458 137.74 96.2458 137.74L94.6435 131.849C94.6435 131.849 96.0299 131.481 98.4552 130.838C99.6775 130.548 101.13 130.058 102.806 129.528C103.642 129.254 104.542 128.994 105.474 128.662C106.404 128.322 107.382 127.965 108.403 127.592C110.459 126.883 112.631 125.942 114.953 125.009C116.119 124.554 117.281 123.991 118.489 123.469C119.689 122.924 120.934 122.41 122.165 121.803C123.404 121.213 124.663 120.612 125.937 120.004C127.213 119.396 128.481 118.73 129.774 118.085C132.363 116.806 134.941 115.395 137.544 114.027C140.121 112.61 142.712 111.213 145.231 109.776C147.761 108.362 150.234 106.932 152.631 105.555C157.412 102.77 161.875 100.172 165.7 97.944C169.524 95.7132 172.726 93.8701 174.974 92.6008C177.222 91.3355 178.508 90.6108 178.508 90.6108Z" fill="#487EB0"/>
<path d="M167.259 88.2658C167.259 88.2658 166.83 89.2395 166.187 90.7001C166.026 91.0656 165.851 91.4608 165.668 91.8795C165.476 92.2945 165.245 92.7197 165.023 93.1669C164.567 94.0603 164.082 95.014 163.596 95.9666C162.563 97.8302 161.549 99.7143 160.743 101.092C159.949 102.479 159.42 103.404 159.42 103.404L158.133 102.584C158.133 102.584 158.742 101.712 159.654 100.405C160.58 99.1038 161.745 97.3364 162.939 95.577C163.502 94.6808 164.065 93.7846 164.594 92.9441C164.854 92.5211 165.121 92.1193 165.35 91.7238C165.571 91.3234 165.78 90.9445 165.973 90.5954C166.744 89.1983 167.259 88.2658 167.259 88.2658Z" fill="#487EB0"/>
<path d="M147.607 89.9923C147.607 89.9923 145.66 96.4182 143.715 102.845C143.206 104.447 142.697 106.049 142.22 107.551C141.974 108.301 141.765 109.034 141.516 109.714C141.272 110.396 141.042 111.04 140.829 111.635C139.979 114.018 139.412 115.607 139.412 115.607L138.003 115.02C138.003 115.02 138.653 113.481 139.627 111.173C139.871 110.596 140.136 109.969 140.415 109.308C140.701 108.648 140.95 107.93 141.237 107.2C141.797 105.732 142.394 104.167 142.991 102.601C145.299 96.2975 147.607 89.9923 147.607 89.9923Z" fill="#487EB0"/>
<path d="M121.755 106.77C121.755 106.77 121.434 107.967 120.954 109.763C120.834 110.212 120.704 110.699 120.567 111.212C120.421 111.725 120.328 112.279 120.199 112.844C119.957 113.975 119.699 115.181 119.441 116.388C119.231 117.605 119.021 118.822 118.824 119.963C118.614 121.1 118.466 122.171 118.346 123.089C118.096 124.921 117.929 126.143 117.929 126.143L116.422 125.902C116.422 125.902 116.685 124.685 117.079 122.859C117.271 121.946 117.502 120.883 117.801 119.754C118.087 118.624 118.393 117.419 118.698 116.215C119.051 115.022 119.405 113.828 119.736 112.71C119.909 112.154 120.044 111.607 120.229 111.107C120.405 110.605 120.572 110.13 120.727 109.692C121.343 107.94 121.755 106.77 121.755 106.77Z" fill="#487EB0"/>
<path d="M152.118 106.51C152.118 106.51 152.376 106.568 152.829 106.667C153.055 106.717 153.331 106.778 153.646 106.847C153.964 106.927 154.313 106.982 154.693 107.032C155.073 107.088 155.488 107.148 155.925 107.211C156.361 107.281 156.843 107.308 157.331 107.362C157.822 107.404 158.328 107.469 158.847 107.497C159.365 107.532 159.892 107.567 160.419 107.602C162.529 107.726 164.649 107.798 166.239 107.888C167.034 107.923 167.696 107.976 168.158 108.019C168.621 108.057 168.884 108.08 168.884 108.08C168.884 108.08 168.619 108.081 168.155 108.085C167.692 108.084 167.031 108.09 166.237 108.127C164.65 108.18 162.534 108.299 160.408 108.365C159.876 108.378 159.344 108.391 158.819 108.403C158.296 108.422 157.778 108.402 157.277 108.404C156.773 108.395 156.294 108.411 155.826 108.381C155.357 108.355 154.915 108.33 154.506 108.308C154.093 108.289 153.719 108.263 153.404 108.213C153.084 108.172 152.804 108.136 152.574 108.107C152.114 108.048 151.851 108.014 151.851 108.014L152.118 106.51Z" fill="#487EB0"/>
<path d="M131.164 119.329C131.164 119.329 131.422 119.505 131.874 119.813C132.1 119.967 132.374 120.154 132.689 120.369C133.002 120.591 133.358 120.825 133.753 121.045C134.147 121.277 134.574 121.529 135.025 121.795C135.474 122.066 135.987 122.302 136.497 122.575C137.012 122.841 137.542 123.122 138.101 123.368C138.656 123.622 139.221 123.881 139.785 124.14C140.932 124.621 142.077 125.114 143.169 125.532C144.255 125.967 145.278 126.352 146.153 126.687C147.904 127.356 149.072 127.803 149.072 127.803C149.072 127.803 147.874 127.447 146.077 126.913C145.178 126.645 144.129 126.339 143.009 125.988C141.885 125.652 140.699 125.247 139.507 124.851C138.917 124.633 138.327 124.415 137.747 124.201C137.162 123.995 136.601 123.752 136.057 123.52C135.514 123.282 134.979 123.084 134.488 122.836C133.994 122.593 133.527 122.364 133.097 122.152C132.657 121.947 132.278 121.737 131.954 121.542C131.623 121.352 131.336 121.186 131.099 121.05C130.625 120.778 130.354 120.622 130.354 120.622L131.164 119.329Z" fill="#487EB0"/>
<path d="M113.087 128.847C113.087 128.847 114.058 129.479 115.515 130.428C115.88 130.665 116.275 130.922 116.692 131.193C117.105 131.474 117.561 131.723 118.022 132.005C118.95 132.56 119.94 133.15 120.931 133.741C121.928 134.336 122.925 134.93 123.86 135.487C124.325 135.77 124.783 136.024 125.201 136.3C125.62 136.571 126.016 136.829 126.381 137.066C127.84 138.014 128.812 138.645 128.812 138.645C128.812 138.645 127.791 138.096 126.26 137.272C125.878 137.066 125.465 136.843 125.027 136.608C124.592 136.37 124.111 136.153 123.626 135.91C122.651 135.433 121.61 134.924 120.571 134.414C119.524 133.901 118.478 133.388 117.497 132.907C117.01 132.662 116.522 132.444 116.09 132.2C115.652 131.963 115.237 131.739 114.854 131.533C113.324 130.708 112.302 130.157 112.302 130.157L113.087 128.847Z" fill="#487EB0"/>
<path fill-rule="evenodd" clip-rule="evenodd" d="M253.689 111.002C257.114 116.503 249.99 120.351 244.238 122.26C250.174 129.855 256.311 137.386 262.056 144.114C264.898 142.089 267.831 140.184 270.941 138.635C274.292 136.968 279.846 134.296 283.131 137.494C288.793 143.011 277.961 150.032 271.096 154.368C273.415 156.903 275.597 159.206 277.571 161.179C283.128 166.67 288.836 171.541 294.866 175.716C297.598 173.616 300.216 171.292 303.057 169.436C306.286 167.328 311.414 163.614 315.493 165.388C320.105 167.395 316.8 172.898 314.606 175.196C311.968 177.96 308.731 180.003 305.631 182.197C312.732 185.845 320.365 188.555 328.76 190.201C332.308 186.659 335.721 182.951 339.484 179.68C343.127 176.514 351.331 168.484 356.947 171.405C363.676 174.903 356.387 183.772 349.471 190.485C372.27 185.504 388.744 162.902 385.104 140.25C418.982 111.282 397.488 84.9506 376.745 71.9753C377.555 74.6386 378.087 77.374 378.131 80.1876C378.2 84.6028 376.248 90.6904 371.019 90.7854C364.915 90.8963 362.675 83.4013 361.758 78.7109C360.783 73.7333 359.702 68.791 358.462 63.8881C349.49 61.5893 339.491 60.9341 328.928 61.4085C332.449 67.1293 338.215 77.2311 331.794 79.9253C321.607 84.1998 316.328 72.1352 312.935 62.8579C306.432 63.716 299.818 64.8631 293.188 66.2069C293.843 68.0138 294.424 69.8461 294.896 71.6696C295.569 74.2737 297.095 79.2981 294.738 81.5675C291.864 84.3339 286.484 80.3656 284.742 78.0414C282.685 75.2974 281.507 72.1743 280.467 68.9853C271.176 71.1463 261.982 73.5326 253.165 75.8393C255.133 79.8731 256.579 84.4807 253.052 86.0236C248.833 87.868 244.59 83.6067 241.363 78.9132C232.727 81.1365 224.608 83.1302 217.321 84.5468C221.889 92.0994 228.987 102.2 236.961 112.782C242.548 109.603 250.635 106.097 253.689 111.002Z" fill="#408156"/>
<path d="M319.339 122.344C319.339 122.344 319.02 121.776 318.46 120.785C318.18 120.289 317.84 119.686 317.452 118.996C317.054 118.32 316.626 117.518 316.187 116.599C315.74 115.699 315.257 114.725 314.745 113.693C314.229 112.666 313.794 111.558 313.286 110.429C312.794 109.295 312.266 108.134 311.82 106.917C311.355 105.71 310.882 104.486 310.41 103.259C309.571 100.769 308.67 98.314 307.998 95.9524C307.26 93.6149 306.674 91.4054 306.177 89.5142C305.648 87.6319 305.333 86.0297 305.057 84.927C304.797 83.8189 304.649 83.1851 304.649 83.1851C304.649 83.1851 304.866 83.7985 305.246 84.872C305.642 85.9389 306.129 87.4882 306.861 89.2975C307.56 91.1158 308.379 93.2312 309.361 95.4542C310.279 97.7015 311.434 100.021 312.52 102.359C313.114 103.504 313.708 104.648 314.291 105.775C314.853 106.91 315.494 107.98 316.091 109.026C316.701 110.059 317.245 111.097 317.839 112.008C318.425 112.922 318.98 113.786 319.49 114.583C319.981 115.378 320.477 116.106 320.958 116.749C321.421 117.394 321.825 117.954 322.157 118.415C322.822 119.339 323.203 119.867 323.203 119.867C323.947 120.898 323.714 122.334 322.684 123.079C321.655 123.823 320.217 123.591 319.473 122.561C319.427 122.492 319.381 122.416 319.339 122.344Z" fill="#2A5C31"/>
<path d="M292.716 158.053C292.716 158.053 295.071 156.05 298.607 153.048C299.49 152.297 300.448 151.484 301.461 150.624C302.457 149.744 303.625 148.957 304.769 148.065C307.096 146.311 309.579 144.439 312.06 142.569C314.547 140.738 317.035 138.907 319.365 137.191C320.521 136.323 321.679 135.526 322.703 134.695C323.737 133.877 324.714 133.104 325.615 132.389C329.212 129.54 331.613 127.641 331.613 127.641L331.73 127.549C332.726 126.761 334.174 126.928 334.962 127.924C335.752 128.92 335.583 130.368 334.586 131.156C334.531 131.2 334.471 131.243 334.414 131.281C334.414 131.281 331.794 132.986 327.866 135.545C326.886 136.183 325.825 136.874 324.701 137.603C323.586 138.348 322.365 139.03 321.125 139.791C318.637 141.288 315.983 142.886 313.331 144.482C310.712 146.098 308.093 147.715 305.639 149.23C304.421 150.01 303.19 150.682 302.115 151.467C301.027 152.229 299.997 152.952 299.048 153.616C295.247 156.276 292.716 158.053 292.716 158.053Z" fill="#2A5C31"/>
<path d="M260.482 126.832C260.482 126.832 260.965 126.576 261.809 126.126C262.666 125.702 263.828 124.98 265.338 124.32C266.088 123.977 266.901 123.604 267.762 123.208C268.622 122.8 269.549 122.457 270.498 122.054C272.399 121.249 274.444 120.477 276.485 119.678C278.514 118.882 280.56 118.109 282.422 117.318C283.352 116.92 284.275 116.578 285.106 116.179C285.942 115.795 286.732 115.43 287.46 115.094C288.931 114.449 290.051 113.748 290.879 113.336C291.693 112.903 292.157 112.655 292.157 112.655L292.291 112.582C293.414 111.983 294.81 112.407 295.41 113.53C296.009 114.653 295.585 116.05 294.462 116.649C294.376 116.694 294.278 116.739 294.189 116.772C294.189 116.772 293.66 116.973 292.732 117.321C291.799 117.642 290.501 118.227 288.892 118.694C288.093 118.942 287.228 119.21 286.312 119.494C285.4 119.79 284.425 120.012 283.426 120.29C281.425 120.843 279.296 121.34 277.168 121.868C275.053 122.391 272.924 122.889 270.961 123.43C269.982 123.7 269.009 123.923 268.129 124.207C267.238 124.481 266.394 124.74 265.618 124.978C264.047 125.43 262.792 125.995 261.888 126.302C260.995 126.642 260.482 126.832 260.482 126.832Z" fill="#2A5C31"/>
<path d="M328.469 170.625C328.469 170.625 330.652 168.465 333.926 165.227C334.746 164.417 335.632 163.54 336.569 162.612C337.487 161.662 338.566 160.778 339.623 159.796C341.769 157.863 344.059 155.798 346.348 153.735C348.622 151.684 350.897 149.632 353.03 147.709C354.082 146.736 355.151 145.844 356.07 144.915C356.998 143.994 357.874 143.123 358.681 142.32C361.909 139.118 364.058 136.983 364.058 136.983L364.185 136.857C365.087 135.961 366.544 135.967 367.44 136.869C368.335 137.772 368.33 139.229 367.429 140.123C367.378 140.174 367.323 140.222 367.269 140.268C367.269 140.268 364.867 142.245 361.263 145.211C360.365 145.949 359.391 146.75 358.363 147.598C357.34 148.452 356.191 149.242 355.042 150.118C352.728 151.843 350.259 153.683 347.792 155.523C345.338 157.35 342.885 159.178 340.584 160.89C339.445 161.765 338.287 162.542 337.286 163.403C336.266 164.238 335.3 165.029 334.409 165.759C330.844 168.678 328.469 170.625 328.469 170.625Z" fill="#2A5C31"/>
<path d="M355.847 132.456C355.847 132.456 355.707 131.734 355.462 130.472C355.34 129.839 355.191 129.073 355.021 128.193C354.837 127.325 354.657 126.32 354.531 125.174C354.386 124.047 354.229 122.826 354.063 121.536C353.876 120.244 353.828 118.913 353.697 117.521C353.438 114.745 353.321 111.798 353.157 108.851C353.017 105.914 352.876 102.98 352.743 100.227C352.622 97.4752 352.398 94.9231 352.206 92.7299C352.067 90.5283 351.712 88.7288 351.573 87.4486C351.401 86.1729 351.303 85.4429 351.303 85.4429C351.303 85.4429 351.471 86.1592 351.766 87.4104C352.028 88.6673 352.561 90.4454 352.915 92.6268C353.322 94.8 353.797 97.3413 354.188 100.076C354.589 102.806 355.015 105.719 355.442 108.632C355.891 111.528 356.291 114.437 356.81 117.115C357.068 118.45 357.249 119.777 357.543 120.965C357.816 122.161 358.074 123.29 358.313 124.333C358.523 125.367 358.795 126.33 359.067 127.193C359.322 128.052 359.545 128.801 359.729 129.419C360.097 130.653 360.306 131.357 360.306 131.357C360.672 132.573 359.984 133.855 358.767 134.222C357.552 134.589 356.269 133.9 355.901 132.684C355.882 132.609 355.861 132.527 355.847 132.456Z" fill="#2A5C31"/>
<path d="M273.859 107.736C273.859 107.736 273.723 107.366 273.485 106.723C273.252 106.069 272.92 105.137 272.521 104.019C271.734 101.788 270.748 98.7953 269.855 95.775C269.378 94.2804 269.022 92.7307 268.628 91.3159C268.252 89.8902 268.012 88.5216 267.753 87.3786C267.51 86.2269 267.456 85.2308 267.35 84.5587C267.267 83.883 267.218 83.4956 267.218 83.4956C267.218 83.4956 267.337 83.868 267.544 84.5217C267.773 85.1684 267.998 86.106 268.444 87.1827C268.908 88.2573 269.377 89.5193 270 90.8342C270.643 92.1439 271.254 93.5554 271.99 94.9264C273.396 97.6871 274.887 100.401 276.047 102.41C276.628 103.408 277.111 104.24 277.449 104.822C277.797 105.405 277.995 105.738 277.995 105.738L278.004 105.753C278.657 106.846 278.299 108.264 277.204 108.915C276.109 109.568 274.693 109.209 274.041 108.115C273.97 107.998 273.907 107.861 273.859 107.736Z" fill="#2A5C31"/>
<path d="M230.98 91.4169C230.98 91.4169 241.914 95.0499 258.314 100.499C274.715 105.933 296.627 113.04 318.709 119.379C324.239 120.922 329.757 122.507 335.222 123.915C340.669 125.399 346.064 126.691 351.274 127.978C356.497 129.2 361.546 130.36 366.345 131.362C371.153 132.314 375.683 133.3 379.894 133.974C381.992 134.339 384.005 134.688 385.918 135.02C387.832 135.348 389.655 135.564 391.362 135.816C394.78 136.291 397.753 136.76 400.208 136.967C405.109 137.475 407.909 137.766 407.909 137.766L406.485 149.931C406.485 149.931 403.581 149.434 398.499 148.563C395.949 148.174 392.911 147.487 389.415 146.762C387.67 146.383 385.802 146.033 383.859 145.566C381.92 145.095 379.881 144.599 377.753 144.083C373.483 143.103 368.938 141.794 364.109 140.499C359.296 139.155 354.256 137.639 349.056 136.052C343.876 134.401 338.516 132.731 333.131 130.873C327.719 129.088 322.278 127.128 316.828 125.207C295.079 117.368 273.663 108.809 257.652 102.295C241.65 95.7688 230.98 91.4169 230.98 91.4169Z" fill="#2A5C31"/>
<path fill-rule="evenodd" clip-rule="evenodd" d="M-13.9892 111.692C6.55079 206.814 116.295 254.148 192.834 227.938C181.156 186.515 154.126 138.308 112.828 123.052C76.3438 110.157 25.7536 101.429 -13.9892 111.692Z" fill="#E9E69A"/>
<path d="M19.6471 133.38C19.6471 133.38 19.9122 134.029 20.3768 135.163C20.8157 136.323 21.5661 137.855 22.2255 139.939C22.574 140.957 22.9498 142.061 23.3488 143.23C23.7394 144.394 24.053 145.634 24.43 146.908C25.2102 149.446 25.8011 152.21 26.4797 154.941C27.0367 157.704 27.6634 160.446 28.0801 163.048C28.5581 165.637 28.9245 168.067 29.2201 170.149C29.547 172.227 29.7241 173.973 29.8836 175.187C30.0337 176.404 30.1187 177.099 30.1187 177.099C30.1187 177.099 29.9752 176.413 29.7214 175.214C29.4583 174.017 29.1377 172.297 28.6374 170.257C28.1677 168.211 27.599 165.834 26.9077 163.305C26.2759 160.764 25.4263 158.102 24.6481 155.43C23.7491 152.792 22.9385 150.132 21.9656 147.718C21.494 146.509 21.0816 145.313 20.6141 144.233C20.1422 143.157 19.6978 142.142 19.2867 141.203C18.5264 139.331 17.6057 137.774 17.0822 136.683C16.5231 135.593 16.2035 134.971 16.2035 134.971C15.722 134.039 16.0885 132.895 17.0203 132.413C17.952 131.932 19.0964 132.298 19.5771 133.228C19.6021 133.275 19.6279 133.332 19.6471 133.38Z" fill="#D2B48C"/>
<path d="M53.3224 148.339C53.3224 148.339 53.708 149.174 54.3827 150.638C54.7201 151.37 55.1291 152.258 55.5989 153.277C55.832 153.788 56.0794 154.332 56.3409 154.905C56.569 155.509 56.808 156.144 57.0603 156.805C57.5572 158.127 58.0957 159.558 58.6657 161.072C59.2263 162.583 59.6767 164.198 60.2175 165.854C60.7447 167.513 61.2944 169.222 61.7538 170.984C62.237 172.738 62.7275 174.521 63.219 176.3C65.0251 183.443 66.8312 190.586 68.1866 195.942C68.8478 198.624 69.5512 200.811 69.9716 202.368C70.4158 203.918 70.6696 204.803 70.6696 204.803C70.6696 204.803 70.3596 203.937 69.8168 202.419C69.297 200.896 68.4516 198.746 67.6179 196.112C65.9232 190.857 63.6615 183.849 61.4005 176.842C60.801 175.109 60.2015 173.376 59.6102 171.668C59.0436 169.955 58.3942 168.305 57.7697 166.71C57.1342 165.124 56.5851 163.549 55.9507 162.133C55.3138 160.724 54.7134 159.39 54.1572 158.159C53.8825 157.546 53.616 156.959 53.3646 156.398C53.0681 155.844 52.7859 155.32 52.5212 154.826C51.9875 153.84 51.5215 152.979 51.1373 152.272C50.3697 150.855 49.9313 150.046 49.9313 150.046C49.4284 149.127 49.7679 147.974 50.6871 147.472C51.6064 146.969 52.7602 147.307 53.2614 148.227C53.2832 148.259 53.3057 148.305 53.3224 148.339Z" fill="#D2B48C"/>
<path d="M94.3212 169.994C94.3212 169.994 94.6234 170.775 95.1556 172.143C95.6536 173.539 96.5218 175.398 97.283 177.872C97.6825 179.089 98.1167 180.407 98.5732 181.8C99.0433 183.192 99.4092 184.668 99.8596 186.187C100.765 189.221 101.547 192.493 102.392 195.748C103.987 202.275 105.511 208.798 106.792 213.657C107.389 216.101 108.026 218.095 108.405 219.512C108.807 220.924 109.035 221.731 109.035 221.731C109.035 221.731 108.751 220.943 108.251 219.564C107.772 218.177 106.993 216.223 106.223 213.828C104.601 209.061 102.614 202.645 100.57 196.267C99.5 193.098 98.4929 189.907 97.3919 186.986C96.8461 185.526 96.3764 184.079 95.8276 182.773C95.2924 181.464 94.7871 180.225 94.3201 179.082C93.4445 176.798 92.4061 174.91 91.8245 173.579C91.1986 172.254 90.8395 171.494 90.8395 171.494C90.3911 170.548 90.7932 169.416 91.74 168.965C92.6867 168.514 93.818 168.919 94.2663 169.865C94.2838 169.905 94.3054 169.953 94.3212 169.994Z" fill="#D2B48C"/>
<path d="M131.866 190.364L141.6 226.113L128.277 191.593L128.26 191.549C127.884 190.57 128.369 189.471 129.348 189.093C130.328 188.714 131.428 189.202 131.804 190.181C131.828 190.239 131.849 190.303 131.866 190.364Z" fill="#D2B48C"/>
<path d="M109.386 174.015C109.386 174.015 110.036 173.876 111.172 173.63C112.291 173.363 113.973 173.091 115.832 172.558C119.591 171.619 124.711 170.071 129.835 168.635C132.429 167.983 134.981 167.215 137.454 166.76C138.685 166.514 139.861 166.234 140.995 166.048C142.134 165.9 143.212 165.761 144.207 165.632C145.198 165.491 146.107 165.376 146.926 165.399C147.738 165.384 148.446 165.368 149.03 165.357C150.19 165.334 150.853 165.321 150.853 165.321C150.853 165.321 150.192 165.394 149.037 165.518C148.46 165.581 147.76 165.658 146.959 165.746C146.156 165.795 145.267 165.99 144.299 166.217C143.334 166.432 142.286 166.662 141.179 166.908C140.082 167.19 138.942 167.573 137.759 167.92C135.379 168.58 132.911 169.571 130.421 170.436C125.46 172.318 120.563 174.295 116.691 175.64C114.773 176.372 113.197 176.771 112.086 177.144C110.975 177.489 110.341 177.685 110.341 177.685C109.338 177.997 108.275 177.438 107.964 176.436C107.654 175.435 108.214 174.371 109.216 174.06C109.269 174.043 109.323 174.029 109.377 174.017L109.386 174.015Z" fill="#D2B48C"/>
<path d="M34.1261 134.638C34.1261 134.638 45.7054 131.144 57.2847 127.649C68.8069 123.985 80.3257 120.324 80.3257 120.324C80.3257 120.324 69.1098 124.884 57.8939 129.445C46.6175 133.839 35.341 138.232 35.341 138.232C34.3643 138.613 33.2642 138.13 32.8831 137.154C32.502 136.177 32.9844 135.075 33.962 134.696C34.0062 134.678 34.0513 134.662 34.0972 134.648L34.1261 134.638Z" fill="#D2B48C"/>
<path d="M71.7663 154.828C71.7663 154.828 72.5411 154.664 73.9012 154.376C75.2361 154.054 77.2536 153.75 79.4782 153.107C80.6086 152.807 81.8316 152.48 83.1261 152.136C84.4229 151.805 85.7845 151.334 87.2 150.914C90.036 150.078 93.0214 149.022 96.0267 148.019C102.011 145.925 107.986 143.756 112.504 142.234C114.75 141.44 116.663 140.888 117.981 140.449C119.305 140.027 120.061 139.787 120.061 139.787C120.061 139.787 119.325 140.085 118.035 140.604C116.754 141.139 114.896 141.829 112.716 142.789C108.332 144.64 102.544 147.243 96.7149 149.787C93.7782 151.016 90.8646 152.301 88.0573 153.363C86.6553 153.898 85.3318 154.467 84.0162 154.911C82.7031 155.368 81.4631 155.798 80.3157 156.197C78.0165 157.042 76.1201 157.468 74.7834 157.899C73.4496 158.288 72.6862 158.51 72.6862 158.51C71.6814 158.803 70.6279 158.225 70.3352 157.218C70.0409 156.212 70.6187 155.158 71.6244 154.866C71.6703 154.852 71.723 154.839 71.7663 154.828Z" fill="#D2B48C"/>
<path d="M142.122 193.378L169.932 188.855L142.979 197.071C141.974 197.378 140.913 196.812 140.606 195.809C140.3 194.804 140.868 193.743 141.871 193.438C141.949 193.412 142.043 193.392 142.122 193.378Z" fill="#D2B48C"/>
<path d="M182.935 220.979C182.935 220.979 179.799 218.874 174.314 215.19C172.931 214.288 171.45 213.206 169.743 212.186C168.027 211.185 166.169 210.104 164.185 208.949C160.209 206.65 155.807 203.977 150.76 201.404C145.752 198.779 140.4 195.828 134.565 193.001C128.767 190.112 122.669 187.049 116.276 184.021C109.893 180.97 103.295 177.818 96.5926 174.616C89.8772 171.444 83.063 168.117 76.2453 164.813C69.5042 161.368 62.7639 157.925 56.1275 154.534C52.8211 152.796 49.5344 151.241 46.2899 149.702C43.0447 148.158 39.8664 146.617 36.6356 145.167C30.2005 142.244 23.9826 139.419 18.0831 136.74C12.1687 134.026 6.54279 131.492 1.38542 129.009C-3.7675 126.501 -8.52253 124.28 -12.6525 122.045C-16.7963 119.856 -20.4583 118.047 -23.3592 116.292C-29.2265 112.911 -32.5779 110.978 -32.5779 110.978L-24.3054 98.2627C-24.3054 98.2627 -21.2364 100.296 -15.8684 103.856C-13.226 105.696 -9.80357 107.658 -5.95282 110.016C-2.1312 112.41 2.37762 114.87 7.24434 117.63C12.1307 120.374 17.525 123.225 23.2229 126.285C28.9598 129.339 35.0107 132.56 41.2702 135.893C44.3993 137.54 47.5932 139.342 50.8194 141.136C54.0525 142.927 57.3218 144.736 60.4816 146.662C66.8604 150.44 73.3378 154.283 79.8169 158.124C86.3685 161.824 92.903 165.541 99.4181 169.133C105.913 172.755 112.308 176.317 118.492 179.767C124.69 183.194 130.618 186.651 136.242 189.91C141.898 193.105 147.099 196.411 151.945 199.357C156.823 202.24 161.119 205.231 164.958 207.785C166.872 209.069 168.665 210.269 170.322 211.379C171.963 212.507 173.369 213.679 174.695 214.666C179.938 218.684 182.935 220.979 182.935 220.979Z" fill="#D2B48C"/>
</svg>
