<svg width="161" height="163" viewBox="0 0 161 163" fill="none" xmlns="http://www.w3.org/2000/svg">
<path fill-rule="evenodd" clip-rule="evenodd" d="M2.52698 126.135C6.07916 115.43 11.6177 110.981 16.6884 110.132C24.8791 108.761 25.6627 113.441 30.7365 117.403C38.7382 124.484 50.1075 113.358 56.292 123.951C59.1561 129.085 57.9876 131.686 64.5564 134.997C68.5891 137.529 75.5466 138.37 74.6408 144.937C73.2837 155.99 62.36 150.633 52.3782 150.869C46.7865 151.002 43.8229 157.226 35.7055 155.465C32.3808 154.743 29.0703 150.561 25.7543 149.914C22.828 149.201 19.1233 151.024 16.3281 151.09C0.790266 151.687 -1.95073 137.711 2.52698 126.135Z" fill="#87CEEB"/>
<path d="M64.9374 144.469C64.9374 144.469 63.8283 144.174 61.8884 143.659C59.9463 143.145 57.1714 142.435 53.8326 141.601C50.4935 140.765 46.5981 139.789 42.424 138.743C40.3382 138.208 38.1816 137.66 35.996 137.071C33.8059 136.502 31.5931 135.869 29.3738 135.256C27.1661 134.599 24.9458 133.98 22.784 133.278C21.7016 132.931 20.6212 132.61 19.565 132.251C18.5082 131.891 17.4649 131.536 16.4381 131.187C15.4069 130.851 14.4134 130.453 13.4296 130.098C12.4518 129.726 11.4807 129.4 10.5598 129.012C8.71242 128.252 6.94601 127.577 5.36017 126.831C4.56082 126.472 3.7959 126.127 3.06796 125.799C2.34206 125.466 1.66989 125.108 1.02943 124.792C-0.247392 124.15 -1.37074 123.608 -2.25866 123.079C-4.05612 122.064 -5.08366 121.484 -5.08366 121.484L-2.51532 117.493C-2.51532 117.493 -1.5815 118.103 0.0518705 119.169C0.855655 119.723 1.89409 120.307 3.07275 121C3.66563 121.34 4.2839 121.724 4.96038 122.09C5.64075 122.45 6.35625 122.829 7.10267 123.225C8.58207 124.043 10.2553 124.808 12.0026 125.663C12.872 126.1 13.8014 126.478 14.7322 126.904C15.671 127.313 16.6152 127.765 17.6064 128.16C18.5919 128.568 19.5941 128.983 20.6087 129.402C21.6234 129.823 22.6683 130.209 23.7127 130.62C25.7985 131.449 27.9553 132.204 30.0991 132.996C32.2589 133.746 34.4135 134.516 36.5539 135.223C38.6878 135.948 40.7998 136.633 42.8422 137.3C46.9382 138.612 50.7611 139.838 54.038 140.888C57.3163 141.936 60.0468 142.826 61.9495 143.463C63.8495 144.103 64.9374 144.469 64.9374 144.469Z" fill="#487EB0"/>
<path d="M60.4386 136.752C60.4386 136.752 59.6531 137.011 58.475 137.4C58.1803 137.497 57.861 137.602 57.5237 137.714C57.184 137.818 56.8186 137.907 56.4445 138.011C55.6916 138.213 54.8881 138.428 54.0851 138.643C52.4713 139.016 50.8558 139.411 49.6408 139.663C48.4267 139.926 47.617 140.102 47.617 140.102L47.4211 138.932C47.4211 138.932 48.2413 138.83 49.4708 138.676C50.7041 138.534 52.3312 138.288 53.9684 138.062C54.779 137.92 55.5896 137.779 56.35 137.647C56.7299 137.578 57.1008 137.523 57.4481 137.449C57.7942 137.368 58.1219 137.292 58.4241 137.222C59.6322 136.94 60.4386 136.752 60.4386 136.752Z" fill="#487EB0"/>
<path d="M49.216 126.301C49.216 126.301 44.4921 128.521 39.7683 130.741C38.5782 131.281 37.388 131.82 36.2723 132.327C35.7117 132.574 35.1792 132.836 34.6568 133.045C34.1363 133.259 33.6445 133.462 33.1904 133.648C31.3718 134.397 30.1587 134.896 30.1587 134.896L29.765 133.777C29.765 133.777 30.9918 133.352 32.8318 132.714C33.2923 132.554 33.7914 132.381 34.3189 132.198C34.8484 132.02 35.3928 131.791 35.9638 131.576C37.1032 131.136 38.3176 130.666 39.5327 130.196C44.3739 128.249 49.216 126.301 49.216 126.301Z" fill="#487EB0"/>
<path d="M26.0746 120.101C26.0746 120.101 25.2169 120.539 23.9298 121.196C23.6084 121.36 23.2593 121.538 22.8914 121.726C22.5196 121.909 22.1511 122.144 21.7578 122.363C20.9788 122.812 20.1478 123.291 19.3168 123.77C18.5045 124.281 17.6923 124.793 16.9306 125.273C16.1649 125.744 15.4698 126.216 14.8772 126.624C13.6888 127.433 12.8962 127.972 12.8962 127.972L12.2513 126.976C12.2513 126.976 13.0909 126.495 14.3503 125.773C14.9774 125.408 15.7118 124.988 16.5194 124.574C17.3207 124.151 18.1757 123.701 19.0302 123.25C19.9029 122.834 20.7762 122.417 21.5943 122.026C22.0052 121.836 22.3916 121.63 22.7762 121.477C23.1579 121.317 23.5194 121.167 23.8528 121.028C25.1852 120.472 26.0746 120.101 26.0746 120.101Z" fill="#487EB0"/>
<path d="M42.0236 137.501C42.0236 137.501 42.1251 137.68 42.3033 137.994C42.3921 138.15 42.5004 138.341 42.6241 138.559C42.7436 138.784 42.8934 139.014 43.062 139.26C43.2281 139.508 43.4087 139.779 43.5997 140.065C43.7869 140.353 44.0217 140.645 44.245 140.955C44.4759 141.26 44.7013 141.586 44.9548 141.901C45.2046 142.218 45.4589 142.54 45.7126 142.863C46.7389 144.147 47.8005 145.408 48.5761 146.373C48.9694 146.85 49.2828 147.26 49.499 147.55C49.7173 147.837 49.8416 148 49.8416 148C49.8416 148 49.7024 147.848 49.4594 147.582C49.2184 147.314 48.8711 146.935 48.4368 146.496C47.5807 145.607 46.4102 144.447 45.2662 143.254C44.9819 142.953 44.6976 142.653 44.4176 142.356C44.1341 142.064 43.876 141.754 43.6142 141.466C43.3578 141.17 43.0988 140.902 42.8728 140.616C42.6442 140.332 42.4279 140.063 42.2282 139.815C42.0243 139.567 41.8445 139.338 41.7098 139.13C41.5664 138.924 41.4419 138.743 41.3395 138.595C41.1341 138.299 41.0167 138.13 41.0167 138.13L42.0236 137.501Z" fill="#487EB0"/>
<path d="M23.7179 132.07C23.7179 132.07 23.7504 132.311 23.8076 132.732C23.8363 132.942 23.8713 133.198 23.9108 133.492C23.9454 133.788 23.996 134.115 24.0744 134.458C24.1447 134.806 24.2218 135.184 24.303 135.583C24.3796 135.983 24.5105 136.402 24.6185 136.839C24.7323 137.274 24.846 137.727 24.9948 138.178C25.1369 138.631 25.2813 139.091 25.4252 139.552C25.744 140.465 26.0552 141.382 26.3819 142.231C26.6962 143.084 27.0061 143.875 27.2678 144.555C27.7925 145.914 28.1422 146.821 28.1422 146.821C28.1422 146.821 27.7248 145.944 27.0979 144.629C26.785 143.97 26.4157 143.205 26.0356 142.375C25.6445 141.551 25.2617 140.655 24.8702 139.761C24.689 139.307 24.5076 138.853 24.3294 138.406C24.1437 137.962 23.9925 137.511 23.8433 137.076C23.6984 136.638 23.5345 136.227 23.4221 135.814C23.3051 135.403 23.1949 135.014 23.0933 134.655C22.983 134.294 22.907 133.966 22.8509 133.677C22.7885 133.388 22.7349 133.136 22.6899 132.928C22.6005 132.512 22.5499 132.275 22.5499 132.275L23.7179 132.07Z" fill="#487EB0"/>
<path d="M8.81486 126.583C8.81486 126.583 8.95546 127.473 9.16571 128.808C9.21862 129.142 9.27555 129.503 9.3359 129.885C9.38894 130.27 9.48226 130.662 9.55921 131.075C9.72199 131.9 9.89622 132.779 10.07 133.659C10.2459 134.545 10.4216 135.429 10.5858 136.259C10.6644 136.675 10.7562 137.072 10.8146 137.457C10.8757 137.84 10.9328 138.202 10.9858 138.537C11.1974 139.872 11.3385 140.762 11.3385 140.762C11.3385 140.762 11.1246 139.887 10.8044 138.574C10.7243 138.246 10.6378 137.892 10.5461 137.517C10.4568 137.141 10.3319 136.751 10.22 136.344C9.98785 135.533 9.74068 134.667 9.4941 133.801C9.24596 132.93 8.99791 132.059 8.76492 131.242C8.65316 130.833 8.52502 130.438 8.44156 130.061C8.3503 129.685 8.26363 129.329 8.18342 129.001C7.86367 127.687 7.65024 126.811 7.65024 126.811L8.81486 126.583Z" fill="#487EB0"/>
<path fill-rule="evenodd" clip-rule="evenodd" d="M92.4206 9.07941C70.2045 45.3584 90.6206 93.4505 122.735 108.265C131.545 91.6414 137.548 68.2387 129.093 50.9496C121.449 35.8596 108.085 17.83 92.4206 9.07941Z" fill="#E9E69A"/>
<path d="M96.5108 26.0901C96.5108 26.0901 96.3986 26.3754 96.2032 26.8743C95.992 27.3735 95.7667 28.0847 95.3461 28.9427C95.1491 29.3698 94.9347 29.8323 94.7082 30.3222C94.4803 30.8082 94.2052 31.295 93.9398 31.8117C93.4205 32.8497 92.7732 33.902 92.1634 34.9704C91.5055 36.0124 90.8761 37.0685 90.2226 38.0171C89.5923 38.9799 88.9747 39.859 88.4395 40.6068C87.9158 41.3625 87.4448 41.968 87.1288 42.4001C86.8091 42.8301 86.6261 43.0755 86.6261 43.0755C86.6261 43.0755 86.7877 42.8154 87.0695 42.3595C87.3476 41.9016 87.7654 41.2609 88.2227 40.465C88.6917 39.6763 89.2295 38.7528 89.7742 37.7446C90.3413 36.7504 90.8762 35.6521 91.4366 34.5723C91.9485 33.4668 92.4952 32.3809 92.9161 31.3239C93.1319 30.7993 93.3624 30.2967 93.5406 29.814C93.7161 29.3314 93.8821 28.8762 94.0354 28.4552C94.36 27.6338 94.5389 26.8635 94.7025 26.3606C94.8548 25.8472 94.9416 25.5538 94.9416 25.5538C95.0706 25.1138 95.5319 24.8626 95.9719 24.9916C96.4119 25.1206 96.6631 25.5819 96.5344 26.0211C96.5282 26.0434 96.5191 26.0693 96.5108 26.0901Z" fill="#D2B48C"/>
<path d="M102.644 40.9848C102.644 40.9848 102.514 41.3653 102.286 42.032C102.171 42.3653 102.033 42.7692 101.874 43.2335C101.793 43.4654 101.707 43.7121 101.617 43.9722C101.507 44.2321 101.391 44.5049 101.271 44.7903C101.029 45.3581 100.767 45.9733 100.491 46.6239C100.212 47.2711 99.8669 47.9175 99.538 48.6046C99.204 49.2883 98.8619 49.9946 98.4754 50.6904C98.0987 51.391 97.7158 52.1027 97.334 52.8138C95.7492 55.6176 94.1644 58.4214 92.9765 60.5241C92.3758 61.572 91.9382 62.4758 91.6011 63.0951C91.2738 63.7192 91.087 64.0756 91.087 64.0756C91.087 64.0756 91.2503 63.7083 91.5369 63.0643C91.8323 62.4258 92.2137 61.491 92.7451 60.4064C93.7953 58.2332 95.1955 55.3344 96.5954 52.4363C96.9289 51.7073 97.2625 50.9782 97.591 50.2598C97.929 49.5469 98.2216 48.8292 98.5054 48.1366C98.7834 47.4429 99.085 46.7794 99.3119 46.14C99.5357 45.5023 99.7485 44.8993 99.9441 44.3422C100.042 44.0654 100.135 43.7993 100.225 43.546C100.298 43.2814 100.368 43.0303 100.433 42.7945C100.562 42.3214 100.674 41.9084 100.766 41.5689C100.951 40.8892 101.057 40.501 101.057 40.501C101.175 40.0585 101.63 39.7967 102.073 39.9151C102.515 40.0336 102.778 40.4889 102.659 40.9311C102.656 40.9477 102.649 40.969 102.644 40.9848Z" fill="#D2B48C"/>
<path d="M109.072 60.2074C109.072 60.2074 108.932 60.5456 108.688 61.1386C108.424 61.7305 108.137 62.5805 107.631 63.5924C107.39 64.0977 107.13 64.6456 106.854 65.2241C106.582 65.8059 106.252 66.3831 105.936 66.9995C105.307 68.2321 104.567 69.5028 103.851 70.7873C102.386 73.3324 100.899 75.855 99.837 77.7785C99.2881 78.7315 98.8875 79.5541 98.5797 80.1166C98.2807 80.6844 98.1094 81.0084 98.1094 81.0084C98.1094 81.0084 98.2572 80.6735 98.5153 80.0866C98.7827 79.5035 99.1259 78.6506 99.6056 77.6609C100.531 75.6639 101.84 73.0351 103.119 70.4013C103.737 69.0763 104.381 67.7633 104.915 66.5072C105.183 65.8808 105.471 65.2817 105.692 64.703C105.917 64.1276 106.132 63.5833 106.329 63.0807C106.742 62.0941 106.983 61.1837 107.201 60.5875C107.403 59.9794 107.519 59.6308 107.519 59.6308C107.662 59.1964 108.131 58.9597 108.567 59.1029C109.002 59.2461 109.238 59.7155 109.094 60.15C109.088 60.1679 109.08 60.1898 109.072 60.2074Z" fill="#D2B48C"/>
<path d="M114.796 77.9809L107.084 92.2235L113.291 77.2864L113.298 77.2672C113.475 76.844 113.96 76.6431 114.384 76.8189C114.808 76.9951 115.009 77.4813 114.832 77.9044C114.822 77.93 114.809 77.9564 114.796 77.9809Z" fill="#D2B48C"/>
<path d="M112.623 66.0259C112.623 66.0259 112.87 66.1782 113.303 66.4433C113.738 66.6966 114.352 67.1182 115.101 67.511C116.573 68.3486 118.659 69.4043 120.713 70.4967C121.73 71.0737 122.769 71.6011 123.688 72.2037C124.152 72.4975 124.608 72.7638 125.022 73.0473C125.427 73.3443 125.811 73.6257 126.164 73.8854C126.52 74.1399 126.842 74.3776 127.094 74.6323C127.355 74.8725 127.584 75.0814 127.772 75.254C128.146 75.5968 128.359 75.7931 128.359 75.7931C128.359 75.7931 128.128 75.6165 127.725 75.3071C127.524 75.1528 127.28 74.9659 127 74.752C126.731 74.525 126.391 74.3183 126.017 74.0979C125.646 73.8746 125.245 73.631 124.821 73.3749C124.389 73.1328 123.913 72.9098 123.434 72.6624C122.483 72.1531 121.403 71.7214 120.354 71.2432C118.218 70.341 116.072 69.4883 114.442 68.7448C113.615 68.3975 112.996 68.0475 112.532 67.8301C112.077 67.6041 111.817 67.4748 111.817 67.4748C111.406 67.2707 111.238 66.7733 111.442 66.3623C111.646 65.9521 112.144 65.7848 112.555 65.9889C112.577 65.9993 112.599 66.0113 112.619 66.0238L112.623 66.0259Z" fill="#D2B48C"/>
<path d="M100.709 30.8584C100.709 30.8584 105.426 33.2483 110.142 35.6382C114.891 37.9576 119.639 40.2765 119.639 40.2765C119.639 40.2765 114.716 38.3333 109.793 36.39C104.901 34.3758 100.009 32.3616 100.009 32.3616C99.5849 32.1873 99.3828 31.7024 99.5571 31.2785C99.7314 30.8547 100.217 30.6519 100.64 30.8269C100.659 30.8348 100.678 30.8434 100.697 30.8528L100.709 30.8584Z" fill="#D2B48C"/>
<path d="M106.518 48.6039C106.518 48.6039 106.812 48.7859 107.329 49.1053C107.849 49.4064 108.578 49.9193 109.476 50.3872C109.924 50.6335 110.409 50.8994 110.923 51.1811C111.433 51.4679 112.005 51.7302 112.58 52.0244C113.729 52.6162 114.992 53.1833 116.245 53.7733C118.769 54.9174 121.313 56.0347 123.201 56.9172C124.151 57.3442 124.922 57.7469 125.472 58.0061C126.018 58.2722 126.329 58.4248 126.329 58.4248C126.329 58.4248 126.007 58.2965 125.442 58.0716C124.876 57.8538 124.08 57.5113 123.101 57.1568C121.156 56.4187 118.54 55.4952 115.929 54.5401C114.629 54.0422 113.32 53.5692 112.112 53.0577C111.507 52.8035 110.916 52.5843 110.366 52.3274C109.813 52.0756 109.291 51.8373 108.808 51.6172C107.826 51.1904 107.098 50.7527 106.545 50.4855C106.006 50.2059 105.698 50.0456 105.698 50.0456C105.291 49.8352 105.132 49.3345 105.344 48.9276C105.555 48.5205 106.055 48.3617 106.461 48.573C106.48 48.5824 106.501 48.5942 106.518 48.6039Z" fill="#D2B48C"/>
<path d="M117.13 82.0297L127.289 88.9933L116.286 83.456C115.876 83.2496 115.711 82.7505 115.917 82.3409C116.123 81.9306 116.623 81.7664 117.032 81.9726C117.065 81.9882 117.101 82.0099 117.13 82.0297Z" fill="#D2B48C"/>
<path d="M121.705 103.076C121.705 103.076 121.349 101.464 120.726 98.6436C120.561 97.9409 120.419 97.1518 120.187 96.314C119.947 95.4795 119.686 94.5769 119.407 93.6129C118.843 91.6859 118.258 89.5119 117.439 87.175C116.648 84.8332 115.846 82.2844 114.854 79.6295C113.893 76.9659 112.889 74.1567 111.781 71.2694C110.683 68.3782 109.549 65.3901 108.396 62.3546C107.23 59.3244 106.079 56.2157 104.92 53.1131C103.829 49.9891 102.736 46.8658 101.661 43.7906C101.14 42.243 100.571 40.7591 100.009 39.2934C99.4488 37.8255 98.9089 36.3789 98.3249 34.9453C97.1724 32.0785 96.0588 29.3085 95.0019 26.6807C93.9508 24.0373 92.9367 21.5379 92.0552 19.1962C91.1829 16.8477 90.3498 14.71 89.7182 12.7569C89.0687 10.8138 88.4567 9.13652 88.0691 7.70597C87.2342 4.86595 86.758 3.24298 86.758 3.24298L93.2118 1.71919C93.2118 1.71919 93.5684 3.28862 94.1914 6.03456C94.4717 7.41375 94.9618 9.06718 95.4676 10.9752C95.9536 12.8856 96.6367 15.0245 97.3426 17.3663C98.0594 19.7089 98.9049 22.2384 99.7828 24.926C100.675 27.6233 101.616 30.4683 102.59 33.4114C103.082 34.8768 103.548 36.4106 104.027 37.9517C104.509 39.4938 104.996 41.0527 105.414 42.6154C106.291 45.7356 107.179 48.9056 108.069 52.0759C109.024 55.2235 109.968 58.3713 110.944 61.4734C111.904 64.5792 112.852 67.6357 113.766 70.593C114.691 73.5478 115.522 76.4301 116.317 79.1583C117.141 81.8758 117.788 84.4911 118.431 86.8852C119.104 89.2694 119.559 91.5119 120.002 93.4782C120.22 94.462 120.425 95.3825 120.614 96.2335C120.792 97.0857 120.883 97.8805 121.004 98.5928C121.45 101.446 121.705 103.076 121.705 103.076Z" fill="#D2B48C"/>
<path fill-rule="evenodd" clip-rule="evenodd" d="M138.87 50.4955C138.071 51.0742 137.163 51.468 136.293 51.9267C137.361 55.3021 138.784 58.6864 140.62 61.9748C141.849 60.2415 143.188 58.4315 144.5 56.5507C143.902 55.9144 143.275 55.3086 142.835 54.537C142.775 54.4314 142.872 54.3195 142.97 54.2968C144.032 54.0536 145.123 54.0866 146.203 54.0293C147.263 52.3952 148.259 50.7112 149.113 48.9827C148.212 48.3526 147.251 47.8105 146.361 47.1621C146.25 47.0818 146.28 46.9212 146.395 46.8638C147.634 46.2465 149.113 45.8139 150.527 45.6803C151.436 43.142 151.947 40.5147 151.828 37.8078C150.67 37.3393 149.487 36.9279 148.39 36.3231C148.28 36.2628 148.233 36.1166 148.345 36.0272C149.249 35.2994 150.324 34.8613 151.386 34.4152C150.806 31.6341 149.697 28.6825 148.309 25.9047C147.604 26.1226 146.891 26.3042 146.153 26.4003C145.997 26.4205 145.91 26.2505 145.989 26.1265C146.41 25.4654 146.953 24.9081 147.491 24.346C145.767 21.2128 143.73 18.4026 141.767 16.4563C137.625 19.847 135.347 25.0264 134.379 29.6659C135.651 29.7621 136.976 29.9656 137.828 30.8139C137.889 30.875 137.876 31.011 137.802 31.0574C136.552 31.8379 135.242 32.4987 133.884 33.064C133.856 33.4212 133.836 33.7698 133.824 34.1093C133.737 36.1602 133.79 38.3089 133.99 40.5183C135.053 40.6623 136.12 40.767 137.106 41.23C137.22 41.2835 137.26 41.4419 137.151 41.5259C136.281 42.1991 135.257 42.5938 134.284 43.0877C134.623 45.4957 135.138 47.9588 135.845 50.4357C136.811 50.3797 137.778 50.3356 138.737 50.1897C138.902 50.1639 139.011 50.3932 138.87 50.4955Z" fill="#AAF0D1"/>
<path d="M140.708 59.4205C140.708 59.4205 140.751 56.4593 140.815 52.0178C140.831 50.9073 140.848 49.7042 140.866 48.4324C140.866 47.1603 140.866 45.8186 140.866 44.4305C140.863 41.6567 140.859 38.6974 140.856 35.7381C140.84 32.777 140.824 29.8156 140.809 27.0393C140.789 24.2636 140.791 21.6704 140.793 19.4471C140.794 15 140.795 12.0354 140.795 12.0354L143.217 12.1138C143.217 12.1138 143.065 15.0676 142.837 19.4989C142.722 21.7146 142.587 24.2999 142.465 27.0739C142.338 29.8473 142.202 32.8054 142.067 35.7633C141.919 38.7231 141.771 41.6828 141.632 44.4574C141.561 45.8439 141.492 47.1842 141.427 48.4552C141.344 49.725 141.265 50.9251 141.193 52.0332C140.902 56.4655 140.708 59.4205 140.708 59.4205Z" fill="#6BAA89"/>
<path d="M145.128 50.9025C145.128 50.9025 144.891 50.5516 144.536 50.0254C144.447 49.8937 144.351 49.7512 144.249 49.6002C144.151 49.4468 144.023 49.3031 143.905 49.1447C143.663 48.8336 143.404 48.5019 143.146 48.1699C142.885 47.8344 142.624 47.4989 142.379 47.1846C142.26 47.0247 142.132 46.8804 142.032 46.725C141.929 46.5721 141.831 46.4269 141.741 46.2934C141.38 45.7558 141.139 45.3977 141.139 45.3977C141.032 45.2385 141.074 45.0228 141.234 44.9157C141.392 44.8088 141.608 44.8514 141.715 45.0103C141.722 45.02 141.728 45.0297 141.733 45.0403L141.751 45.0743C141.751 45.0743 141.947 45.44 142.24 45.9884C142.313 46.1261 142.393 46.2756 142.477 46.4334C142.558 46.5934 142.67 46.7498 142.771 46.9187C142.98 47.2539 143.204 47.6109 143.427 47.9683C143.653 48.3292 143.879 48.69 144.09 49.0284C144.193 49.1987 144.305 49.3558 144.387 49.5182C144.473 49.6784 144.554 49.8299 144.629 49.9698C144.928 50.5296 145.128 50.9025 145.128 50.9025Z" fill="#6BAA89"/>
<path d="M149.057 42.1252C149.057 42.1252 148.94 42.0263 148.735 41.8536C148.528 41.6817 148.229 41.4451 147.855 41.1795C147.113 40.6398 146.075 39.9939 145.047 39.3184C144.535 38.9766 144.027 38.6262 143.565 38.2707C143.106 37.9121 142.686 37.5589 142.354 37.2216C142.183 37.0574 142.033 36.9002 141.908 36.7514C141.78 36.6068 141.667 36.4805 141.586 36.3659C141.417 36.1422 141.32 36.0144 141.32 36.0144C141.205 35.8619 141.235 35.6446 141.387 35.5291C141.54 35.4136 141.758 35.4438 141.873 35.5964C141.877 35.6024 141.882 35.609 141.886 35.6151L141.901 35.6384C141.901 35.6384 141.981 35.7608 142.121 35.9756C142.187 36.0854 142.283 36.2094 142.393 36.3515C142.498 36.4975 142.628 36.6545 142.778 36.8204C143.068 37.1596 143.446 37.5266 143.866 37.9058C144.29 38.2824 144.765 38.6625 145.248 39.0367C146.218 39.7783 147.215 40.5004 147.921 41.0939C148.277 41.3861 148.562 41.6462 148.754 41.8313C148.947 42.0183 149.057 42.1252 149.057 42.1252Z" fill="#6BAA89"/>
<path d="M148.368 32.0488C148.368 32.0488 147.947 31.8335 147.316 31.511C146.683 31.1946 145.834 30.7784 144.992 30.3405C144.577 30.111 144.153 29.8946 143.772 29.6586C143.58 29.5427 143.391 29.4374 143.218 29.3243C143.046 29.2094 142.884 29.1013 142.734 29.0007C142.428 28.8089 142.2 28.6035 142.028 28.4784C141.86 28.3477 141.764 28.2725 141.764 28.2725C141.613 28.1549 141.585 27.937 141.703 27.786C141.82 27.6348 142.038 27.6075 142.19 27.7249C142.198 27.7312 142.205 27.738 142.213 27.7449L142.234 27.7647C142.234 27.7647 142.318 27.8428 142.464 27.9793C142.615 28.1111 142.809 28.3241 143.087 28.5351C143.222 28.6446 143.369 28.7633 143.523 28.8887C143.68 29.0134 143.855 29.1324 144.031 29.2625C144.381 29.5266 144.778 29.778 145.167 30.0417C145.96 30.5507 146.766 31.0427 147.37 31.4172C147.968 31.796 148.368 32.0488 148.368 32.0488Z" fill="#6BAA89"/>
<path d="M142.039 23.8469L137.039 26.5842L141.673 23.2594C141.828 23.1478 142.045 23.1836 142.156 23.339C142.268 23.4948 142.233 23.7113 142.077 23.8229C142.066 23.8307 142.055 23.8381 142.043 23.8443L142.039 23.8469Z" fill="#6BAA89"/>
<path d="M141.408 32.6082C141.408 32.6082 141.012 32.8363 140.418 33.179C140.269 33.2645 140.108 33.3573 139.938 33.4556C139.769 33.554 139.577 33.645 139.386 33.7461C139.002 33.9437 138.592 34.1549 138.182 34.3657C137.763 34.5541 137.344 34.7422 136.951 34.9189C136.753 35.0035 136.569 35.0992 136.383 35.165C136.198 35.2347 136.024 35.3001 135.863 35.3607C135.221 35.6025 134.793 35.7639 134.793 35.7639C134.793 35.7639 135.203 35.5629 135.82 35.2619C135.973 35.1871 136.139 35.1056 136.316 35.0194C136.493 34.9377 136.668 34.8244 136.855 34.7221C137.226 34.5114 137.622 34.2867 138.018 34.0617C138.399 33.817 138.781 33.5723 139.139 33.343C139.317 33.2264 139.492 33.1226 139.652 33.0081C139.812 32.8946 139.964 32.7866 140.103 32.6875C140.662 32.2905 141.035 32.0255 141.035 32.0255C141.192 31.9148 141.408 31.9516 141.519 32.1073C141.63 32.2633 141.593 32.4796 141.437 32.5906C141.427 32.5967 141.417 32.6028 141.408 32.6082Z" fill="#6BAA89"/>
<path d="M141.213 43.1518C141.213 43.1518 140.928 43.3651 140.485 43.6802C140.262 43.8381 140.003 44.0213 139.719 44.2069C139.44 44.3992 139.127 44.5849 138.821 44.7771C138.504 44.9541 138.196 45.1426 137.89 45.2896C137.591 45.4492 137.3 45.5752 137.052 45.6814C136.808 45.7963 136.588 45.8557 136.442 45.9129C136.294 45.9656 136.21 45.9954 136.21 45.9954C136.21 45.9954 136.29 45.9553 136.431 45.8853C136.569 45.8107 136.777 45.7275 137.004 45.5839C137.236 45.4498 137.505 45.2926 137.779 45.1003C138.06 44.9215 138.34 44.6992 138.627 44.4902C138.904 44.2657 139.184 44.0494 139.434 43.8282C139.689 43.6138 139.919 43.4054 140.116 43.2267C140.51 42.8681 140.771 42.6182 140.771 42.6182C140.91 42.4858 141.129 42.4905 141.262 42.6289C141.394 42.7676 141.389 42.9871 141.251 43.1195C141.241 43.129 141.231 43.1372 141.221 43.1454L141.213 43.1518Z" fill="#6BAA89"/>
<path fill-rule="evenodd" clip-rule="evenodd" d="M81.7018 98.0391C82.1576 93.4464 87.8505 94.3689 91.9263 95.7896C91.874 88.9246 91.681 82.0083 91.3604 75.7157C88.8765 75.6241 86.3937 75.4256 83.9654 74.9491C81.3507 74.4345 77.0546 73.5306 76.5901 70.2987C75.7897 64.7257 84.9533 65.4672 90.7117 66.0015C90.5034 63.5634 90.2722 61.3161 90.0149 59.3447C89.2636 53.8317 88.1569 48.6033 86.5671 43.6279C84.1126 43.6268 81.6255 43.8012 79.2157 43.6148C76.4778 43.4022 71.9701 43.2713 70.4381 40.4985C68.7066 37.3625 72.9624 35.6921 75.1988 35.3475C77.8887 34.9332 80.6027 35.1861 83.3058 35.2941C80.8818 30.1507 77.7503 25.3062 73.7267 20.7309C70.1863 21.1889 66.6491 21.7995 63.1042 22.011C59.6728 22.216 51.5549 23.1854 49.6532 19.0975C47.3743 14.2006 55.3407 12.36 62.1599 11.5749C47.1279 4.48418 28.0124 10.0866 20.2292 24.4535C-11.4748 26.0901 -10.7791 50.2879 -4.70676 66.6208C-4.00674 64.766 -3.11916 62.9909 -1.92192 61.3837C-0.0431895 58.8616 3.70228 56.2731 6.69538 58.4909C10.189 61.0795 8.19793 66.2828 6.67794 69.3282C5.06635 72.5612 3.53 75.8204 2.10051 79.1264C6.16655 84.321 11.5258 89.0336 17.6941 93.3537C18.1913 88.5953 19.3242 80.3891 24.1186 81.6572C31.7251 83.6689 29.4648 92.7715 27.3505 99.4817C31.3937 101.822 35.6255 104.047 39.951 106.168C40.3664 104.864 40.8342 103.577 41.3598 102.343C42.1111 100.581 43.4315 97.0818 45.7475 96.8244C48.5716 96.5115 49.8844 101.088 49.8582 103.156C49.8277 105.599 49.1364 107.873 48.3382 110.125C54.5207 112.94 60.7468 115.587 66.7254 118.114C67.3665 114.983 68.5518 111.754 71.2123 112.415C74.3951 113.206 74.9392 117.454 74.7223 121.505C80.5624 124.001 86.011 126.402 90.7389 128.767C91.4411 122.52 91.8217 113.736 91.9165 104.3C87.3827 103.668 81.2951 102.135 81.7018 98.0391Z" fill="#408156"/>
<path d="M49.5726 63.1239C49.5726 63.1239 49.5061 63.583 49.3916 64.3855C49.3338 64.7868 49.264 65.2753 49.1833 65.8335C49.1146 66.3875 49.0078 67.0264 48.8562 67.7352C48.7177 68.4374 48.5672 69.1974 48.408 70.0021C48.2532 70.8057 48.0177 71.6202 47.8138 72.4783C47.599 73.3321 47.3929 74.2164 47.1159 75.0974C46.8542 75.9807 46.5893 76.8769 46.3232 77.7743C45.7148 79.544 45.1576 81.3214 44.511 82.946C43.9124 84.586 43.2832 86.0874 42.7424 87.3708C42.2234 88.6629 41.7055 89.7042 41.3827 90.4468C41.048 91.185 40.856 91.6069 40.856 91.6069C40.856 91.6069 41 91.1664 41.2518 90.3955C41.4917 89.6214 41.8897 88.5353 42.2626 87.1963C42.6574 85.8661 43.1142 84.3166 43.5253 82.6353C43.9833 80.9681 44.3387 79.1569 44.7411 77.3654C44.9035 76.4615 45.0649 75.5576 45.2252 74.6689C45.4008 73.7835 45.5044 72.9014 45.621 72.052C45.7257 71.2037 45.8696 70.3815 45.9296 69.6095C45.9961 68.8386 46.0583 68.1103 46.1161 67.4386C46.1848 66.7767 46.2207 66.1508 46.2284 65.5784C46.2469 65.0136 46.2622 64.5218 46.2752 64.1173C46.3014 63.3071 46.3156 62.8437 46.3156 62.8437C46.3429 61.9387 47.0985 61.2288 48.0035 61.2561C48.9074 61.2834 49.6184 62.039 49.5911 62.9429C49.5867 63.0018 49.5802 63.0651 49.5726 63.1239Z" fill="#2A5C31"/>
<path d="M80.1088 54.5317C80.1088 54.5317 77.9095 54.6386 74.61 54.7978C73.7857 54.8381 72.8916 54.8806 71.9462 54.9264C71.002 54.9908 70.001 54.9275 68.9673 54.9341C66.8923 54.9133 64.6777 54.8915 62.4653 54.8697C60.266 54.8228 58.0667 54.776 56.0059 54.7323C54.9766 54.7203 53.9767 54.6669 53.0379 54.6909C52.0991 54.704 51.2115 54.716 50.3926 54.728C47.1247 54.7738 44.9451 54.8032 44.9451 54.8032L44.8393 54.8043C43.9343 54.8163 43.1895 54.0934 43.1775 53.1884C43.1645 52.2833 43.8885 51.5397 44.7935 51.5277C44.8436 51.5266 44.896 51.5288 44.9451 51.5321C44.9451 51.5321 47.164 51.7076 50.4929 51.9693C51.3227 52.0347 52.2223 52.1056 53.1731 52.1819C54.1261 52.2463 55.1118 52.3913 56.1422 52.5003C58.1965 52.7358 60.3882 52.9866 62.5787 53.2374C64.7584 53.4631 66.9392 53.6877 68.9826 53.8982C70.0086 53.9876 70.9954 54.1424 71.943 54.1664C72.8883 54.209 73.7835 54.2482 74.6079 54.2853C77.9084 54.4347 80.1088 54.5317 80.1088 54.5317Z" fill="#2A5C31"/>
<path d="M84.7429 86.1539C84.7429 86.1539 84.3591 86.0885 83.6875 85.9762C83.0191 85.8431 82.0497 85.7461 80.9113 85.4626C80.3389 85.3307 79.7174 85.1878 79.0599 85.0373C78.3969 84.8945 77.7252 84.6852 77.0143 84.5009C75.5914 84.1291 74.1019 83.6766 72.6026 83.2415C71.1121 82.8097 69.6215 82.3572 68.2269 81.9952C67.5291 81.8153 66.8596 81.6081 66.2173 81.4718C65.5784 81.3257 64.9743 81.1883 64.4171 81.0618C63.3071 80.787 62.3705 80.6965 61.7239 80.569C61.0762 80.4599 60.7065 80.3989 60.7065 80.3989L60.5997 80.3814C59.7056 80.232 59.1015 79.3859 59.2509 78.4918C59.4002 77.5977 60.2464 76.9936 61.1405 77.143C61.2081 77.155 61.2833 77.1724 61.3477 77.192C61.3477 77.192 61.7337 77.3087 62.4086 77.5148C63.0749 77.7394 64.0616 77.9728 65.1727 78.4078C65.731 78.615 66.3362 78.8396 66.9762 79.0773C67.6196 79.3063 68.2662 79.604 68.9509 79.8809C70.3205 80.4381 71.738 81.0825 73.1685 81.7084C74.5893 82.3321 76.0079 82.9754 77.3501 83.5228C78.0207 83.7954 78.6662 84.092 79.2867 84.3144C79.9082 84.5467 80.497 84.7669 81.0389 84.9697C82.1217 85.3972 83.0758 85.6229 83.7191 85.8421C84.3711 86.0383 84.7429 86.1539 84.7429 86.1539Z" fill="#2A5C31"/>
<path d="M65.3886 31.9062C65.3886 31.9062 63.2188 32.1777 59.964 32.5834C59.1495 32.6848 58.2684 32.7949 57.3362 32.9116C56.4061 33.049 55.4127 33.0795 54.3899 33.1743C52.3389 33.3335 50.1494 33.5047 47.961 33.6748C45.7868 33.8449 43.6115 34.015 41.5725 34.1742C40.5562 34.2658 39.5651 34.3051 38.6426 34.4305C37.7191 34.5471 36.8468 34.6584 36.0421 34.7609C32.8298 35.1665 30.6894 35.438 30.6894 35.438L30.5629 35.4543C29.6644 35.5677 28.8444 34.932 28.731 34.0336C28.6176 33.1351 29.2533 32.3151 30.1507 32.2017C30.2009 32.1952 30.2532 32.1919 30.3034 32.1897C30.3034 32.1897 32.5179 32.1167 35.8403 32.0076C36.6679 31.9815 37.5653 31.952 38.514 31.9204C39.4626 31.8822 40.4537 31.9357 41.4831 31.94C43.5384 31.9717 45.7312 32.0055 47.9229 32.0382C50.1015 32.0731 52.2801 32.1069 54.3223 32.1396C55.3451 32.1407 56.3363 32.205 57.2751 32.1537C58.2139 32.1254 59.1026 32.0981 59.9225 32.0731C63.2024 31.9738 65.3886 31.9062 65.3886 31.9062Z" fill="#2A5C31"/>
<path d="M33.3575 41.5594C33.3575 41.5594 33.1231 42.0283 32.7131 42.8471C32.507 43.2571 32.2584 43.7543 31.9727 44.3246C31.699 44.8949 31.3643 45.5404 30.9379 46.2415C30.5301 46.9404 30.0885 47.6983 29.6218 48.4986C29.1661 49.3088 28.6154 50.0807 28.0844 50.9236C27.0245 52.6028 25.8109 54.3169 24.6235 56.0517C23.4274 57.7701 22.2323 59.4875 21.1114 61.0991C19.985 62.7052 19.0026 64.2427 18.1586 65.5642C17.2809 66.8672 16.6997 68.0372 16.2221 68.8201C15.7652 69.615 15.5035 70.0697 15.5035 70.0697C15.5035 70.0697 15.7194 69.5921 16.0967 68.7579C16.4947 67.9347 16.9658 66.6993 17.7138 65.3145C18.428 63.9112 19.2632 62.2701 20.2304 60.5572C21.1899 58.842 22.2149 57.0123 23.2387 55.1827C24.243 53.353 25.281 51.5375 26.1511 49.8005C26.5851 48.9348 27.0594 48.1072 27.4094 47.309C27.7747 46.5152 28.1193 45.7661 28.4377 45.0737C28.7681 44.3988 29.033 43.7369 29.2544 43.1317C29.4834 42.5364 29.6829 42.0163 29.8475 41.5877C30.1758 40.7318 30.3633 40.2433 30.3633 40.2433C30.685 39.3983 31.6303 38.973 32.4765 39.2947C33.3215 39.6152 33.7468 40.5617 33.4262 41.4078C33.4044 41.458 33.3804 41.5136 33.3575 41.5594Z" fill="#2A5C31"/>
<path d="M68.8985 91.1228C68.8985 91.1228 68.8146 91.39 68.6695 91.8566C68.5169 92.3266 68.2999 92.9972 68.0393 93.8019C67.5148 95.4026 66.7712 97.5201 65.9632 99.6125C65.5838 100.664 65.1116 101.693 64.7191 102.662C64.3124 103.631 63.8533 104.507 63.5033 105.265C63.1402 106.021 62.7379 106.606 62.5056 107.032C62.2592 107.449 62.1185 107.689 62.1185 107.689C62.1185 107.689 62.2134 107.427 62.3802 106.968C62.5318 106.504 62.812 105.877 63.0279 105.075C63.2329 104.267 63.5164 103.351 63.7356 102.339C63.9416 101.32 64.2099 100.258 64.3898 99.1644C64.7954 96.9956 65.1323 94.8159 65.3504 93.1782C65.4562 92.3626 65.5445 91.6833 65.6067 91.2079C65.6634 90.7281 65.6961 90.4533 65.6961 90.4533L65.6972 90.4413C65.804 89.5407 66.6218 88.8962 67.5225 89.0042C68.4242 89.111 69.0675 89.9288 68.9607 90.8295C68.9498 90.9265 68.9258 91.0312 68.8985 91.1228Z" fill="#2A5C31"/>
<path d="M86.0132 118.957C86.0132 118.957 81.4194 112.157 74.5292 101.959C67.6326 91.7683 58.3512 78.2399 48.6403 65.0714C46.1891 61.798 43.763 58.5073 41.29 55.3386C38.8595 52.1351 36.3756 49.0624 33.9942 46.0736C31.5768 43.1154 29.2303 40.2673 26.9569 37.6177C24.6562 34.992 22.5277 32.4678 20.444 30.2587C19.418 29.141 18.4333 28.0703 17.4978 27.0519C16.5601 26.0356 15.6245 25.1219 14.7707 24.2376C13.0479 22.4853 11.5737 20.9294 10.2773 19.7463C7.73232 17.3311 6.27775 15.9507 6.27775 15.9507L12.3654 9.70277C12.3654 9.70277 13.7883 11.2446 16.2787 13.9433C17.549 15.2703 18.9655 16.9778 20.6239 18.9056C21.4439 19.8771 22.3467 20.8857 23.2408 21.9936C24.1306 23.1014 25.0662 24.267 26.0431 25.4828C28.0276 27.8904 30.0241 30.6032 32.1874 33.4317C34.3202 36.2809 36.5065 39.3252 38.7526 42.4797C40.9596 45.6614 43.2592 48.9315 45.4923 52.3193C47.7712 55.6777 49.9912 59.1473 52.2331 62.5984C61.1044 76.4692 69.4753 90.6016 75.6829 101.233C81.8806 111.866 86.0132 118.957 86.0132 118.957Z" fill="#2A5C31"/>
</svg>
