<svg width="86" height="24" viewBox="0 0 86 24" fill="none" xmlns="http://www.w3.org/2000/svg">
<path d="M39.1402 13.9341L39.1488 11.1891L37.9641 13.2542H36.9615L35.8633 11.2323L35.872 13.9341H34.521V9.39301H36.2134L37.504 11.7993L38.8029 9.39301H40.4941V13.9341H39.1402Z" fill="#29251C"/>
<path d="M66.8996 9.41119H68.2343V13.9341H66.8996V9.41119ZM66.874 7.68469H68.2603V8.87069H66.874V7.68469Z" fill="#29251C"/>
<mask id="mask0_21_190" style="mask-type:luminance" maskUnits="userSpaceOnUse" x="0" y="0" width="86" height="24">
<path d="M85.0394 0H0V23.6946H85.0394V0Z" fill="white"/>
</mask>
<g mask="url(#mask0_21_190)">
<path d="M71.3772 11.9734C70.9499 11.9734 69.8866 12.0157 69.8866 12.6275C69.8927 12.8749 70.0983 13.0705 70.3457 13.0643C70.3525 13.0642 70.3594 13.0638 70.3662 13.0633C70.7456 13.0485 71.106 12.8932 71.3772 12.6275V11.9734ZM72.7617 13.9434H71.4451L71.4191 13.5074C71.056 13.8217 70.6 14.0086 70.1208 14.0395C69.301 14.0395 68.5952 13.4894 68.5952 12.6275C68.5952 11.9912 69.0486 11.5549 69.6067 11.337C70.1817 11.1445 70.7891 11.0675 71.394 11.1104C71.3849 10.6308 71.2539 10.3433 70.7223 10.3433C70.2602 10.3433 69.938 10.561 69.6067 10.8581L68.7347 10.0901C69.2805 9.5623 70.0157 9.2763 70.7747 9.2965C71.9423 9.2965 72.7619 9.8902 72.7619 11.1193L72.7617 13.9434Z" fill="#29251C"/>
<path d="M75.8964 10.5356C75.8182 10.5356 75.7399 10.5092 75.661 10.5092C75.3579 10.5109 75.0696 10.6407 74.8674 10.8665C74.7838 10.9707 74.7194 11.0889 74.677 11.2156V13.9341H73.3442V9.4023H74.6432L74.669 10.0389C74.8698 9.5944 75.3143 9.3105 75.8021 9.3151C76.0229 9.3134 76.2429 9.3428 76.4556 9.4023C76.4035 9.5155 75.8981 10.5358 75.8981 10.5358" fill="#29251C"/>
<path d="M79.1461 10.6657C78.9048 10.4218 78.5817 10.2758 78.2391 10.256C77.9835 10.2704 77.749 10.4027 77.6045 10.6141C77.4304 10.9372 77.3489 11.3021 77.369 11.6685C77.369 12.2526 77.5689 13.0631 78.2931 13.0631C78.6161 13.0412 78.9199 12.9017 79.1471 12.6711L79.1461 10.6657ZM79.1723 13.9341L79.137 13.5425C78.8064 13.8381 78.3775 13.9997 77.9341 13.9959C76.6091 13.9959 75.9905 12.8719 75.9905 11.6774C75.9586 11.0513 76.1676 10.4367 76.5746 9.9598C76.9159 9.5454 77.4228 9.3028 77.9597 9.297C78.4009 9.3044 78.8237 9.4754 79.1459 9.777V7.4498H80.4973V13.9341H79.1723Z" fill="#29251C"/>
<path d="M43.2421 10.3179C42.475 10.3179 42.2306 11.0057 42.2306 11.6603C42.2306 12.3149 42.4752 12.9931 43.2421 12.9931C44.009 12.9931 44.2533 12.3129 44.2533 11.6603C44.2533 11.0077 44.0092 10.3179 43.2421 10.3179ZM43.2421 14.0137C41.8215 14.0135 40.8623 13.0809 40.8623 11.6603C40.8623 10.2397 41.8213 9.29718 43.2419 9.29718C44.6625 9.29718 45.6223 10.239 45.6223 11.6603C45.6223 13.0816 44.6629 14.0137 43.2421 14.0137Z" fill="#29251C"/>
<path d="M48.8527 13.9341V10.9537C48.8527 10.6399 48.8436 10.4309 48.4508 10.4309C48.0325 10.4309 47.5969 10.7789 47.2999 11.0406V13.9341H45.9497V9.4112H47.2572L47.2743 10.0556C47.8146 9.6022 48.3638 9.31509 49.0785 9.31509C49.7144 9.31509 50.2031 9.67199 50.2031 10.344V13.9341H48.8527Z" fill="#29251C"/>
<path d="M52.9081 14.0393C51.8177 14.0393 51.4522 13.4029 51.4522 12.4007C51.4522 11.7644 51.4604 11.1362 51.4604 10.5003L50.5283 10.509V9.41098L51.4786 9.42008L51.5127 8.44288L52.7687 8.09448V9.41988L54.1804 9.41078V10.509L52.7943 10.5005V12.3229C52.8038 12.523 52.734 12.9499 53.0386 12.9499C53.2741 12.9499 53.5794 12.7323 53.7791 12.6104L54.3715 13.4989C53.9512 13.8267 53.4395 14.0157 52.9071 14.0399" fill="#29251C"/>
<path d="M56.821 10.3177C56.5119 10.326 56.2156 10.4432 55.9845 10.6486V12.6277C56.2299 12.8694 56.5557 13.0121 56.8997 13.0286C57.6232 13.0286 57.7364 12.043 57.7364 11.5031C57.7364 10.8754 57.5443 10.3177 56.821 10.3177ZM58.2681 13.6398C57.962 13.88 57.5849 14.0119 57.1959 14.0149C56.7455 14.0254 56.3095 13.8558 55.9845 13.5438L55.9407 13.9458H54.6333V7.4509H55.9845V9.7679C56.3211 9.4699 56.7553 9.3057 57.2048 9.3065C57.6306 9.3089 58.0415 9.4634 58.3635 9.7421C58.8611 10.1608 59.1135 10.7965 59.1135 11.5812C59.1135 12.5228 58.835 13.203 58.2672 13.6384" fill="#29251C"/>
<path d="M61.5246 9.07039L60.8793 8.40859L62.491 7.32779L63.3279 8.18199L61.5246 9.07039ZM61.6985 10.2997C61.2547 10.2865 60.8842 10.6355 60.871 11.0793C60.8708 11.084 60.8707 11.0887 60.8707 11.0933H62.5185C62.5227 10.6589 62.174 10.3033 61.7396 10.2991C61.7259 10.2989 61.7123 10.2991 61.6985 10.2997ZM61.8119 14.0048C60.3388 14.0048 59.4492 13.1069 59.4492 11.6338C59.4492 10.3091 60.3299 9.30669 61.6898 9.30669C63.0226 9.30669 63.8168 10.1952 63.8168 11.5033C63.821 11.6577 63.812 11.8122 63.7899 11.9651H60.837C60.8494 12.5036 61.2755 12.941 61.8134 12.9677C62.2576 12.9677 62.6418 12.6887 62.9469 12.3919L63.8447 13.1856C63.306 13.7215 62.5736 14.017 61.8138 14.0052" fill="#29251C"/>
<path d="M65.7483 14.0048C65.1559 14.0048 64.6592 13.7955 64.4317 13.3767C64.2957 13.092 64.2387 12.7759 64.2667 12.4617V7.44958H65.5915V12.4185C65.5915 12.6102 65.5477 12.8975 65.8354 12.8975C65.9799 12.8894 66.1232 12.8661 66.2628 12.8279L66.6552 13.83C66.3636 13.934 66.0577 13.993 65.7483 14.0048Z" fill="#29251C"/>
<path d="M35.8161 4.96798L35.0992 4.96228V5.87768H35.8161C36.0673 5.89648 36.2862 5.70808 36.305 5.45688C36.3238 5.20568 36.1354 4.98678 35.8841 4.96798C35.8615 4.96628 35.8388 4.96628 35.8161 4.96798ZM35.8714 6.32448H35.0992V7.42228H34.521V4.54298H35.8282C35.9349 4.54118 36.0416 4.54488 36.1479 4.55398C36.5943 4.59328 36.9262 4.98418 36.8925 5.43108C36.8925 6.07618 36.4614 6.31968 35.8714 6.32448Z" fill="#29251C"/>
<path d="M38.8539 6.11488H38.694C38.3244 6.11488 37.6296 6.13598 37.6296 6.65008C37.6261 6.88148 37.8108 7.07178 38.0421 7.07528C38.0517 7.07528 38.0613 7.07528 38.0709 7.07468C38.3713 7.04108 38.6493 6.89988 38.8537 6.67718L38.8539 6.11488ZM39.4274 7.42208H38.8647L38.848 7.15198C38.5904 7.35448 38.2763 7.47208 37.9491 7.48828C37.481 7.50738 37.0862 7.14348 37.0671 6.67538C37.0668 6.66698 37.0665 6.65858 37.0664 6.65008C37.0737 6.29548 37.2934 5.98008 37.6235 5.85018C37.9986 5.68478 38.4399 5.70678 38.8425 5.70678C38.8425 5.28218 38.7818 4.94008 38.2744 4.94008C38.0056 4.94988 37.7525 5.06948 37.5742 5.27098L37.2145 4.92358C37.5051 4.63728 37.8988 4.48018 38.3066 4.48778C38.7037 4.48778 39.1448 4.64818 39.3221 5.02828C39.3979 5.21178 39.434 5.40918 39.4279 5.60758L39.4274 7.42208Z" fill="#29251C"/>
<path d="M41.1187 7.7862C41.076 7.9394 41.0169 8.0874 40.9422 8.2277C40.7719 8.4783 40.4769 8.6141 40.1757 8.5806C40.04 8.5789 39.905 8.56019 39.7738 8.52519V8.0619C39.8801 8.0886 39.9895 8.1016 40.0992 8.1006C40.4188 8.1006 40.5348 7.9351 40.623 7.6538L40.7332 7.2956C40.6752 7.1989 40.6257 7.0974 40.5851 6.9922L39.6807 4.5593H40.2874L40.9822 6.56129C40.9932 6.65639 40.9987 6.75219 40.9987 6.84789C40.9969 6.75229 41.0006 6.65649 41.0097 6.56129L41.6444 4.5593H42.2236L41.1187 7.7862Z" fill="#29251C"/>
<path d="M43.4486 7.49911C43.0465 7.51231 42.6557 7.36561 42.3618 7.09101L42.7089 6.72711C42.8934 6.92541 43.1499 7.04091 43.4206 7.04771C43.6413 7.04771 43.9449 6.97041 43.9449 6.69461C43.9449 6.15421 42.4443 6.30301 42.4443 5.34881C42.4443 4.78631 42.9573 4.48311 43.4703 4.48311C43.8127 4.47451 44.1477 4.58351 44.4194 4.79201L44.1101 5.18341C43.931 5.02661 43.703 4.93681 43.4651 4.92951C43.2607 4.92951 43.0015 5.03531 43.0015 5.27161C43.0053 5.36341 43.0474 5.44941 43.1177 5.50861C43.2276 5.59061 43.3534 5.64881 43.4871 5.67931C43.9557 5.83371 44.4962 6.04911 44.4962 6.63361C44.4962 7.21811 43.9724 7.49911 43.4486 7.49911Z" fill="#29251C"/>
<path d="M47.8165 5.32619C47.6361 5.11829 47.38 4.99109 47.1053 4.97309C46.8927 4.98169 46.6983 5.0955 46.5867 5.2767C46.4612 5.5059 46.4021 5.7655 46.416 6.02649C46.416 6.50079 46.5867 7.01929 47.1383 7.01929C47.4004 6.99849 47.6438 6.87559 47.8163 6.67719L47.8165 5.32619ZM47.8332 7.42209L47.8121 7.17399C47.6028 7.36099 47.3312 7.46329 47.0505 7.46059C46.2121 7.46059 45.8209 6.75489 45.8209 5.99349C45.8006 5.59739 45.9329 5.20859 46.1905 4.90709C46.4068 4.64509 46.7276 4.49169 47.0674 4.48779C47.3463 4.49269 47.6134 4.6009 47.8172 4.7914V3.3187H48.3962V7.42299L47.8332 7.42209Z" fill="#29251C"/>
<path d="M50.8829 5.58008C50.8905 5.22818 50.6114 4.93678 50.2596 4.92918C50.2576 4.92918 50.2555 4.92908 50.2535 4.92908C49.8293 4.92908 49.6144 5.26018 49.5591 5.64608H50.8831L50.8829 5.58008ZM51.4287 6.10408H49.5316C49.5319 6.28988 49.5754 6.47298 49.6586 6.63908C49.7902 6.86978 50.0334 7.01438 50.299 7.01988C50.5747 7.00808 50.8344 6.88708 51.0208 6.68358L51.3849 7.03638C51.0993 7.32598 50.7051 7.48208 50.2987 7.46648C49.3772 7.46648 48.9414 6.83778 48.9414 5.96658C48.9414 5.19418 49.3827 4.49368 50.2211 4.49368C51.0428 4.49368 51.4456 5.10578 51.4456 5.87288C51.4457 5.95038 51.4399 6.02738 51.4287 6.10408Z" fill="#29251C"/>
<path d="M22.3528 4.54221H13.9829L18.1536 12.3187L22.3528 4.54221Z" fill="#971F21"/>
<path d="M8.51598 4.54221H4.54248V19.1565H8.51598V4.54221Z" fill="#971F21"/>
<path d="M19.6475 17.0263H16.4067L12.8696 10.487V19.1562H23.4657V10.3478L19.6475 17.0263Z" fill="#971F21"/>
<path d="M31.7938 4.54221H27.8203V19.1565H31.7938V4.54221Z" fill="#971F21"/>
<path d="M35.8622 16.1049L35.179 17.9013H36.5908L35.8622 16.1049ZM37.0528 19.1565L36.7211 18.2783H35.01L34.6848 19.1565H34.1968L35.5825 15.7673H36.1681L37.5407 19.1565H37.0528Z" fill="#971F21"/>
<path d="M40.9673 18.1482C40.986 18.3553 40.9501 18.5637 40.8632 18.7526C40.6682 19.1044 40.1344 19.2218 39.7703 19.2218C38.6643 19.2218 38.1309 18.5186 38.1309 17.4587C38.1309 16.4694 38.7294 15.6888 39.7703 15.6888C40.2176 15.6871 40.645 15.8737 40.9478 16.2029L40.6487 16.5084C40.4215 16.2293 40.0841 16.0629 39.7244 16.0525C38.9503 16.0525 38.5991 16.7885 38.5991 17.4646C38.5991 18.1934 38.9376 18.8442 39.7441 18.8442C40.1473 18.8442 40.5376 18.7526 40.5376 18.2654C40.5376 18.0891 40.5376 17.9076 40.5311 17.7255H39.692V17.3472H40.9671L40.9673 18.1482Z" fill="#971F21"/>
<path d="M44.7147 18.1482C44.7334 18.3553 44.6976 18.5636 44.6109 18.7526C44.4154 19.1044 43.882 19.2218 43.5175 19.2218C42.4115 19.2218 41.8779 18.5186 41.8779 17.4587C41.8779 16.4694 42.4766 15.6888 43.5175 15.6888C43.9647 15.6872 44.392 15.8738 44.6948 16.2029L44.3957 16.5084C44.1686 16.2296 43.8315 16.0632 43.472 16.0527C42.6979 16.0527 42.3465 16.7887 42.3465 17.4648C42.3465 18.1937 42.685 18.8444 43.4915 18.8444C43.8945 18.8444 44.2853 18.7528 44.2853 18.2656C44.2853 18.0894 44.2853 17.9078 44.2783 17.7257H43.4392V17.3472H44.7145L44.7147 18.1482Z" fill="#971F21"/>
<path d="M45.8135 19.1565V15.7673H46.2429L46.2366 18.7725L47.9147 18.7661V19.1562L45.8135 19.1565Z" fill="#971F21"/>
<path d="M50.0936 16.0791C49.2868 16.0791 48.9675 16.7366 48.9675 17.4587C48.9675 18.1808 49.2865 18.8381 50.0936 18.8381C50.9064 18.8381 51.2257 18.181 51.2257 17.4587C51.2257 16.7364 50.9064 16.0791 50.0936 16.0791ZM50.0936 19.2083C49.0526 19.2083 48.4995 18.4799 48.4995 17.4845C48.4995 16.5278 49.0784 15.7142 50.0936 15.7142C51.115 15.7142 51.6937 16.5278 51.6937 17.4845C51.6937 18.4799 51.1409 19.2083 50.0936 19.2083Z" fill="#971F21"/>
<path d="M55.9677 19.1565L55.981 16.157L54.8682 18.5772H54.3099L53.2161 16.1185L53.229 19.1562H52.793V15.7738H53.5288L54.5828 18.2402L55.6617 15.7749H56.4043V19.1565H55.9677Z" fill="#971F21"/>
<path d="M58.5447 15.2919L58.3369 15.071L59.1895 14.4986L59.4882 14.8108L58.5447 15.2919ZM57.6929 19.1565V15.78H59.9765V16.1701L58.1285 16.1633V17.2173L59.6384 17.2107V17.5949L58.1285 17.5884V18.7731L59.996 18.7668V19.1569L57.6929 19.1565Z" fill="#971F21"/>
<path d="M62.5382 16.1246H61.4912V17.2698H62.4929C62.857 17.2698 63.1699 17.0876 63.1699 16.6844C63.1699 16.2943 62.9093 16.1246 62.5382 16.1246ZM63.2738 19.1565L62.5124 17.6468H61.491V19.156H61.0547V15.7542H62.4142C62.5252 15.752 62.6361 15.7563 62.7466 15.7673C63.2477 15.8189 63.6313 16.1246 63.6313 16.6582C63.6481 17.084 63.3709 17.4658 62.9609 17.5818L63.7675 19.1562L63.2738 19.1565Z" fill="#971F21"/>
<path d="M66.0244 16.1049L65.3419 17.9013H66.7538L66.0244 16.1049ZM67.215 19.1565L66.8833 18.2783H65.1724L64.8472 19.1565H64.3594L65.7449 15.7673H66.3305L67.7033 19.1565H67.215Z" fill="#971F21"/>
<path d="M69.2062 16.1633V19.1565H68.77V16.1633L67.625 16.1703V15.7798H70.3509V16.1701L69.2062 16.1633Z" fill="#971F21"/>
<path d="M70.915 19.1562V18.7856L71.5587 18.7922V16.151H70.9543V15.78H72.5806V16.151H71.9749V18.7922L72.6254 18.7856V19.1562H70.915Z" fill="#971F21"/>
<path d="M74.9545 16.0791C74.148 16.0791 73.8288 16.7366 73.8288 17.4587C73.8288 18.1808 74.1478 18.8381 74.9545 18.8381C75.7679 18.8381 76.0865 18.181 76.0865 17.4587C76.0865 16.7364 75.7679 16.0791 74.9545 16.0791ZM74.9545 19.2083C73.9134 19.2083 73.3604 18.4799 73.3604 17.4845C73.3604 16.5278 73.9396 15.7142 74.9545 15.7142C75.9759 15.7142 76.5551 16.5278 76.5551 17.4845C76.5551 18.4799 76.0019 19.2083 74.9545 19.2083Z" fill="#971F21"/>
<path d="M79.8122 19.1565L78.0689 16.1635L78.0821 19.1565H77.646V15.7738H78.3294L80.0726 18.7727L80.0595 15.7738H80.4949V19.1565H79.8122Z" fill="#971F21"/>
</g>
</svg>
