<svg width="29" height="24" viewBox="0 0 29 24" fill="none" xmlns="http://www.w3.org/2000/svg">
<path d="M22.9572 6.87468C22.9774 7.04812 22.9743 10.1065 22.9549 10.2351C22.9034 10.2595 22.8459 10.2475 22.7904 10.2466C22.0383 10.2347 21.304 10.1101 20.5867 9.88313C19.8379 9.64607 19.128 9.29764 18.4803 8.84928C18.4419 8.82279 18.4017 8.79906 18.3621 8.77454C18.3585 8.77234 18.3524 8.77454 18.3465 8.77454C18.3165 8.78834 18.3253 8.81759 18.3246 8.84171C18.3228 8.89422 18.3239 8.9468 18.3239 8.99938C18.3239 11.2006 18.3183 13.4019 18.3253 15.6031C18.333 18.047 16.9 20.286 14.6846 21.2926C14.1176 21.5503 13.525 21.7138 12.9072 21.7893C9.82599 22.1652 6.97945 20.1471 6.2183 17.1459C6.05685 16.5105 6.00147 15.8649 6.04111 15.2084C6.20007 12.5725 8.03538 10.2932 10.5739 9.59822C11.2364 9.4169 11.9101 9.3569 12.5936 9.39877C12.7023 9.40547 12.8105 9.41974 12.9187 9.43274C12.9433 9.43566 12.9668 9.44804 12.9883 9.45529C13.0101 9.60421 13.0181 11.4814 13.0027 12.7528C13.0021 12.7939 12.9972 12.8351 12.9936 12.8868C12.9358 12.8742 12.8861 12.8648 12.8372 12.8522C12.6158 12.7948 12.3881 12.7661 12.1596 12.7667C10.922 12.7714 9.81485 13.6219 9.47754 14.8286C9.02948 16.4315 10.0261 18.0845 11.646 18.3972C13.1958 18.6967 14.5526 17.6847 14.8951 16.3008C14.9529 16.0662 14.9817 15.8252 14.9808 15.5834V15.5519L14.9827 6.45803C14.983 5.09213 14.9836 3.72622 14.9844 2.36031C14.9844 2.30331 14.987 2.24623 14.9887 2.18072C15.0238 2.1752 15.0529 2.16724 15.0821 2.16677C15.1963 2.16519 15.3105 2.1659 15.4248 2.1659H18.1182C18.1797 2.1659 18.2411 2.16811 18.3003 2.16929C18.3366 2.22495 18.3237 2.27903 18.3257 2.32964C18.3664 3.19289 18.6024 3.99552 19.075 4.7175C19.8175 5.85273 20.8549 6.54649 22.1767 6.79719C22.3948 6.83857 22.6199 6.84449 22.8418 6.86696C22.8774 6.87066 22.9129 6.87224 22.9572 6.87468Z" fill="white"/>
</svg>
