<svg width="84" height="17" viewBox="0 0 84 17" fill="none" xmlns="http://www.w3.org/2000/svg">
<g clip-path="url(#clip0_21_191)">
<path d="M9.63623 12.9537L9.83583 12.933L10.0458 12.9016L10.5392 12.8389L11.0849 12.7237L11.6412 12.5984L12.1872 12.4416L12.7541 12.2742L13.3208 12.0757L13.7514 11.9396L13.9298 11.8561L14.0978 11.7515L14.2446 11.6156L14.3811 11.4693L14.4862 11.2915L17.205 5.60394L21.5613 16.4144L21.6139 16.54L21.6874 16.6548L21.7819 16.7595L21.8867 16.8432L22.0128 16.9164L22.1387 16.958L22.2751 16.9895H22.4116L26.1172 17L19.336 2.51968H15.3258L9.63623 12.9537Z" fill="#29756E"/>
<path d="M28.6368 3.38746V0.773682L22.0129 4.37024L21.9498 4.4016L21.8133 4.45373L21.6665 4.4957H21.53L21.4145 4.47479L21.2884 4.43297L21.1836 4.39115L21.1416 4.37024L21.1939 4.53752L21.2991 4.87208L21.4355 5.2171L21.614 5.56212L21.8239 5.87577L22.0442 6.13715L22.2542 6.32534L22.4431 6.42989L22.6216 6.47171H22.8002L22.968 6.4508L23.0941 6.40898L23.1989 6.36716L23.2409 6.3358L28.6368 3.38746Z" fill="#B01E24"/>
<path d="M41.9157 12.3579H41.8423L41.7793 12.3684L41.7164 12.3788L41.6745 12.3999L41.622 12.431L41.58 12.4625L41.538 12.5042L41.5065 12.5564L41.0026 13.4033H43.2804V14.8985L43.102 14.9507L42.9445 14.9926L42.7975 15.0238L42.6401 15.0554L42.4933 15.0867L42.2937 15.1075L42.1362 15.1285L41.9999 15.139H41.5483L41.391 15.1179L41.1706 15.097L41.034 15.0763L40.8975 15.0448L40.761 15.0137L40.6246 14.9717L40.4987 14.9194L40.3413 14.8358L40.2153 14.7626L40.1103 14.679L40.0052 14.5953L39.9004 14.5011L39.8059 14.407L39.7114 14.3026L39.6378 14.1874L39.5433 14.0306L39.4805 13.9053L39.4279 13.7694L39.3859 13.6333L39.3544 13.4974L39.323 13.351L39.302 13.2153L39.2914 13.0689V12.6505L39.3124 12.5148L39.344 12.3893L39.3859 12.2532L39.4279 12.1279L39.4805 12.0025L39.5433 11.8769L39.596 11.8037L39.6798 11.6888L39.7743 11.5841L39.8689 11.4796L39.9739 11.3856L40.0788 11.302L40.2258 11.2079L40.3516 11.1347L40.4881 11.0615L40.6352 11.0092L40.7717 10.9568L40.971 10.9047L41.1284 10.8732L41.286 10.8524L41.4329 10.8315L41.5903 10.821L41.7478 10.8104L41.9054 10.8H42.0522L42.2097 10.8104L42.3671 10.821L42.5246 10.8419L42.6821 10.863L42.8395 10.8836L42.997 10.9151L43.1544 10.936L43.3119 10.9673L43.4694 11.0092L43.6268 11.0404L43.7843 11.0824L43.9313 11.1241L44.0887 11.1661L44.1622 11.1868V10.0995L43.9837 10.0472L43.8368 9.99508L43.6793 9.95311L43.5219 9.9219L43.3749 9.89038L43.2174 9.85916L43.06 9.8278L42.7765 9.78612L42.6191 9.76507L42.4616 9.74416L42.3042 9.73356L42.1467 9.7231L41.9999 9.71265H41.2019L41.0446 9.7231L40.8871 9.73356L40.7297 9.75461L40.5826 9.77552L40.4356 9.79629L40.2782 9.83825L40.1313 9.87993L39.9317 9.93235L39.7849 9.97417L39.6485 10.0263L39.5015 10.0892L39.3755 10.1519L39.2389 10.2146L39.1131 10.2983L38.987 10.3715L38.8401 10.4762L38.7247 10.57L38.6092 10.6641L38.5041 10.7688L38.3993 10.8836L38.2941 10.9883L38.2103 11.1032L38.1263 11.2288L38.0422 11.3541L37.9689 11.4796L37.8744 11.6573L37.8219 11.783L37.7693 11.9293L37.7169 12.0652L37.6854 12.2116L37.6434 12.3579L37.6225 12.5042L37.6015 12.6505L37.591 12.8389V13.1316L37.6118 13.2778L37.6328 13.4348L37.6538 13.581L37.6958 13.7274L37.7273 13.8738L37.7799 14.0098L37.8324 14.1458L37.9057 14.3026L37.9689 14.4385L38.0422 14.5638L38.1157 14.6894L38.1998 14.8147L38.2941 14.9299L38.3783 15.0448L38.4831 15.1494L38.6092 15.2643L38.735 15.3585L38.8611 15.4422L38.9976 15.5258L39.1341 15.599L39.2704 15.6722L39.407 15.7454L39.554 15.7975L39.6904 15.8602L39.8373 15.9127L40.0052 15.9648L40.1627 15.9963L40.3201 16.0275L40.4777 16.0486L40.6352 16.0695L40.7927 16.0906L40.9606 16.1007L41.1074 16.1216L41.2756 16.1322H41.4329L41.7058 16.1427L41.8633 16.1322H42.0102L42.1677 16.1216L42.3356 16.1112L42.4933 16.1007L42.6506 16.08L42.808 16.059L42.9656 16.038L43.1334 16.0275L43.2804 15.9963L43.438 15.9754L43.5953 15.9439L43.7528 15.9127L43.9103 15.8916L44.0677 15.8499L44.2252 15.808L44.3826 15.7768L44.5401 15.7348L44.6766 15.6931V12.3579H41.9157ZM48.1722 2.40467L48.2877 2.41513L48.4241 2.44649L48.5291 2.47786L48.6131 2.50923L48.7076 2.5615L48.7811 2.61378L48.8545 2.67651L48.928 2.74969L49.0015 2.84379L49.0436 2.93788L49.0855 3.02153L49.1065 3.11562L49.1275 3.22017V3.36654L49.117 3.46064L49.096 3.54428L49.0646 3.63838L49.012 3.72202L48.949 3.80566L48.886 3.8893L48.7811 3.98339L48.6867 4.04613L48.5816 4.0984L48.4766 4.12977L48.3717 4.17159L48.2667 4.1925L48.1512 4.20295H47.112L47.0595 4.21341L46.9965 4.23432L46.9545 4.24477L46.9022 4.27614L46.86 4.31796L46.8285 4.35978L46.8075 4.38069L46.3352 5.23801L47.8259 5.22755L49.3374 7.4754H51.122L49.3899 4.85117L49.537 4.80935L49.6628 4.75707L49.7888 4.69434L49.9568 4.6107L50.0722 4.53752L50.1772 4.46433L50.2822 4.38069L50.3768 4.28659L50.4606 4.18204L50.5656 4.04613L50.6391 3.94157L50.7021 3.82657L50.7441 3.71156L50.7861 3.60701L50.8176 3.49201L50.8282 3.35609L50.8387 3.23063V3.13653L50.8282 3.01107L50.8071 2.88561L50.7756 2.76015L50.7336 2.63469L50.6916 2.50923L50.6286 2.38376L50.5551 2.26876L50.4711 2.15375L50.3873 2.0492L50.2927 1.9551L50.1982 1.86101L50.0932 1.77737L49.9778 1.69373L49.8623 1.631L49.7363 1.56827L49.6104 1.51599L49.4844 1.47417L49.3584 1.43235L49.222 1.40098L49.0855 1.39053L48.949 1.38007L48.8125 1.36962L48.6971 1.38007H44.2673V7.4754H45.8628V2.40467L48.0777 2.39422L48.1722 2.40467ZM55.7513 1.00369L56.6226 0H55.132L54.6386 1.00369H55.7513ZM72.1273 7.49631H73.7334V2.47786H75.5286L75.581 2.4674L75.6439 2.45695L75.6859 2.44649L75.7279 2.42558L75.7594 2.40467L75.7806 2.37331L75.8119 2.34194L75.8224 2.31058L75.8434 2.26876L75.8539 2.24785L75.8644 2.23739L76.1583 1.41144H70.3847L70.3323 1.43235L70.2903 1.4428L70.2483 1.47417L70.2063 1.50554L70.1748 1.5369L70.1433 1.57872L70.1223 1.62054L70.1118 1.64145L69.7024 2.47786H72.1273V7.49631ZM51.122 13.2884L51.248 13.2465L51.3739 13.2048L51.4894 13.1421L51.6469 13.0584L51.7518 12.9957L51.8463 12.9121L51.9408 12.8284L52.0248 12.7342L52.0982 12.6299L52.1717 12.5252L52.2347 12.4101L52.2767 12.2847L52.3187 12.1593L52.3502 12.0337L52.3712 11.8979L52.3818 11.762V11.6468L52.3712 11.5109L52.3502 11.3856L52.3292 11.26L52.2872 11.1347L52.2452 11.0195L52.1822 10.8941L52.1297 10.8104L52.0563 10.6956L51.9723 10.591L51.8778 10.4968L51.7833 10.4027L51.6259 10.2878L51.4999 10.2146L51.3739 10.1519L51.2375 10.0892L51.017 10.0161L50.87 9.97417L50.7126 9.94266L50.5656 9.91144L50.4187 9.89038L50.2612 9.86947L50.1037 9.85916L49.9463 9.84871H46.0307V15.9543H47.6368V10.9568H49.7783L49.8518 10.9673L49.9568 10.9779L50.0617 10.9988L50.1564 11.03L50.2822 11.093L50.3662 11.1347L50.4292 11.1868L50.4921 11.2392L50.5551 11.3332L50.5973 11.4168L50.6391 11.5109L50.6706 11.6052L50.6916 11.6888L50.7021 11.7724V11.8247L50.6916 11.9084L50.6811 12.0025L50.6496 12.0756L50.6078 12.1699L50.5551 12.2637L50.4921 12.3369L50.3873 12.452L50.2927 12.5042L50.1982 12.5669L50.1037 12.6089L49.9884 12.6505L49.8833 12.6716L49.7783 12.6925H48.7496L48.7076 12.703L48.6656 12.7237L48.6131 12.7448L48.5711 12.7657L48.5291 12.7969L48.4871 12.8284L48.4558 12.8599L48.4241 12.891L48.4032 12.933L47.9834 13.717H49.3794L50.9855 15.9543H52.7281L50.975 13.3301L51.122 13.2884ZM32.4157 9.83825L29.2979 15.9543H31.0196L31.6599 14.5743H33.5285L33.6018 14.5534L33.6753 14.5326L33.7383 14.5011L33.8014 14.4594L33.8537 14.407L33.9062 14.3547L33.9482 14.2921L33.9589 14.2711L34.4417 13.4768H32.1638L33.4443 10.8L35.7539 15.9337H37.4125L34.5782 9.83825H32.4157ZM68.9887 1.39053H67.4246V7.49631H68.9887V1.39053ZM37.7379 6.60763L37.8534 6.71218L37.9689 6.80627L38.0843 6.90037L38.2103 6.98401L38.3363 7.06751L38.4621 7.15129L38.5986 7.22448L38.735 7.28721L38.8401 7.32903L38.987 7.37085L39.1341 7.42312L39.281 7.46494L39.4385 7.50677L39.5853 7.53813L39.7429 7.55904L39.8897 7.59041L40.0788 7.61132L40.2362 7.62177L40.3936 7.63223H40.5511L40.7087 7.64268H40.8662L41.0236 7.63223L41.2546 7.62177L41.412 7.61132L41.5693 7.60086L41.7164 7.57995L41.8738 7.55904L42.0209 7.52768L42.1677 7.49631L42.3251 7.46494L42.4721 7.43358L42.6296 7.3813L42.7765 7.34994L42.9235 7.29766L43.0705 7.24539L43.1859 7.21402V6.06396L43.123 6.09533L42.9761 6.1476L42.829 6.21033L42.6821 6.25215L42.5351 6.30443L42.3881 6.34625L42.2307 6.37761L42.0102 6.41943L41.8738 6.44034L41.7164 6.46125L41.5693 6.48216L41.4225 6.49262L41.2649 6.50308H40.95L40.8032 6.51353L40.6666 6.50308L40.5197 6.49262L40.3833 6.47171L40.2362 6.44034L40.0998 6.39852L39.9424 6.3567L39.8163 6.31488L39.6904 6.26261L39.575 6.19988L39.4595 6.12669L39.3544 6.05351L39.2494 5.96986L39.1131 5.8444L39.0291 5.73985L38.945 5.6353L38.8611 5.5203L38.7982 5.40529L38.7457 5.27983L38.693 5.15437L38.6406 4.95572L38.6092 4.8198L38.5882 4.67343V4.25523L38.6092 4.11931L38.6406 3.92066L38.6722 3.7952L38.714 3.65929L38.756 3.53383L38.8192 3.41882L38.8821 3.30381L38.987 3.15744L39.0814 3.05289L39.1759 2.95879L39.2914 2.8647L39.3965 2.78106L39.512 2.69742L39.7008 2.59287L39.8269 2.53014L39.9739 2.47786L40.1103 2.43604L40.2572 2.39422L40.4567 2.3524L40.6036 2.34194L40.761 2.32103H41.2229L41.4435 2.33149L41.601 2.34194L41.7584 2.36285L41.9157 2.38376L42.0522 2.40467L42.2097 2.43604L42.3566 2.4674L42.5142 2.50923L42.6611 2.54059L42.808 2.59287L42.9551 2.63469L43.0285 2.66605L43.2071 2.71833L43.2174 1.57872L43.123 1.55781L42.9761 1.51599L42.829 1.46371L42.6716 1.42189L42.5246 1.39053L42.3671 1.34871L42.2202 1.31734L42.0629 1.28598L41.8844 1.25461L41.7268 1.2337L41.58 1.21279L41.4225 1.19188L41.2649 1.18143L41.1074 1.17097H40.4987L40.3516 1.18143L40.1943 1.19188L40.0369 1.21279L39.8897 1.2337L39.7429 1.26507L39.596 1.29643L39.4489 1.33825L39.302 1.38007L39.1341 1.43235L38.9976 1.48462L38.8611 1.5369L38.714 1.59963L38.5882 1.67282L38.4517 1.746L38.3256 1.81919L38.1998 1.90283L38.0843 1.99692L37.9689 2.09102L37.8637 2.18512L37.7589 2.28967L37.6538 2.39422L37.5593 2.50923L37.465 2.62423L37.3809 2.74969L37.297 2.8647L37.234 3.00062L37.1606 3.12608L37.0764 3.32472L37.0241 3.46064L36.982 3.59656L36.94 3.74293L36.9086 3.8893L36.8771 4.03567L36.8666 4.24477L36.8561 4.39114V4.68389L36.8771 4.83026L36.8981 4.97663L36.919 5.123L36.961 5.25892L37.0031 5.40529L37.0764 5.61439L37.1396 5.75031L37.2026 5.87577L37.276 6.01169L37.3495 6.13715L37.4335 6.25215L37.5173 6.36716L37.6118 6.49262L37.7379 6.60763ZM53.8933 15.9543H55.5099V9.85916H53.9038L53.8933 15.9543ZM73.1981 9.85916H71.6969V15.9543H76.4732L76.9351 14.867H73.1981V9.85916ZM58.5961 6.42989H53.694V2.42558H58.3652L57.9768 1.38007H52.1404V7.4754H58.0713L58.5961 6.42989ZM81.0606 14.8462H79.0766V10.9047H83.748L83.3805 9.83825H77.4705V15.9439H83.5065L83.9894 14.8462H81.0606Z" fill="black"/>
<path d="M80.2106 12.3057L80.1687 12.3161H80.1161L80.0531 12.3264L80.0006 12.3473L79.9586 12.3789L79.9062 12.4101L79.8642 12.452L79.8537 12.473L79.245 13.3721H81.9217L81.9637 13.3616L82.0161 13.351L82.0686 13.3301L82.1211 13.3094L82.1631 13.2779L82.2051 13.2362L82.2261 13.2048L82.8769 12.3057H80.2106ZM71.1093 12.703L71.0988 12.5563L71.0778 12.4414L71.0567 12.2951L71.0252 12.1592L70.9832 12.0128L70.9412 11.8766L70.8782 11.7407L70.8257 11.6047L70.7524 11.4791L70.6788 11.3538L70.5843 11.2285L70.49 11.1134L70.3955 10.9985L70.2905 10.8833L70.1855 10.7789L70.0702 10.6742L69.9546 10.5801L69.818 10.486L69.692 10.4024L69.5556 10.3191L69.4191 10.2459L69.272 10.1829L69.1355 10.1097L68.9989 10.0575L68.8519 10.0054L68.705 9.95298L68.558 9.91131L68.411 9.86934L68.2536 9.83812L68.1066 9.80661L67.9492 9.77539L67.7917 9.76494L67.6447 9.75448L67.4976 9.74403H67.3612L67.3087 9.73357H67.2352L67.1092 9.74403H66.9835L66.8363 9.75448L66.6893 9.76494L66.5319 9.77539L66.3849 9.79616L66.2274 9.82767L66.0805 9.85918L65.9335 9.8904L65.7865 9.93237L65.6394 9.97404L65.5031 10.0262L65.3665 10.0892L65.2194 10.1519L65.0936 10.2147L64.9465 10.3087L64.831 10.3819L64.7052 10.476L64.5898 10.5698L64.4742 10.6639L64.3691 10.7686L64.2641 10.8835L64.1698 10.9882L64.0647 11.1241L63.9807 11.2393L63.8969 11.3646L63.8232 11.4899L63.7603 11.6261L63.7088 11.762L63.6457 11.8979L63.6037 12.0443L63.5513 12.2431L63.5302 12.3895L63.5093 12.5463L63.4882 12.6927V13.1107L63.5093 13.2675L63.5195 13.4139L63.5512 13.5603L63.5827 13.7069L63.6142 13.8429L63.6666 13.9997L63.7191 14.1461L63.7821 14.282L63.8451 14.4073L63.9186 14.5435L64.0026 14.6688L64.1285 14.8572L64.2229 14.972L64.3278 15.0767L64.4331 15.1916L64.5379 15.2963L64.6534 15.3904L64.79 15.4948L64.9158 15.5784L65.0418 15.6516L65.1783 15.7352L65.3149 15.798L65.4619 15.8712L65.5985 15.9236L65.7456 15.9863L65.9449 16.0384L66.0918 16.0804L66.2493 16.1116L66.4068 16.1431L66.5537 16.1642L66.7112 16.185L66.8582 16.1954L67.0156 16.2165H67.1731L67.3095 16.2269H67.4775L67.635 16.2165L67.7924 16.206L67.9499 16.1956L68.0969 16.1745L68.3488 16.1328L68.4958 16.1013L68.6429 16.0701L68.7898 16.0281L68.9368 15.9865L69.0838 15.9237L69.2205 15.8713L69.3568 15.8086L69.5563 15.7042L69.6927 15.6307L69.8187 15.5575L69.9342 15.4742L70.0498 15.3801L70.1651 15.286L70.2703 15.1813L70.3752 15.0769L70.5118 14.9096L70.5957 14.7843L70.6797 14.6587L70.7533 14.5227L70.8161 14.3974L70.8792 14.2612L70.9316 14.1148L70.9841 13.9789L71.0156 13.8326L71.0576 13.6862L71.0787 13.5398L71.0997 13.3934L71.1207 13.2366L71.1312 13.0902V13.0066L71.1207 12.8602L71.1093 12.703ZM69.3877 12.9642V13.0898L69.3774 13.2362L69.3563 13.3826L69.3353 13.4974L69.3038 13.6438L69.2721 13.7902L69.2199 13.9264L69.1673 14.0623L69.1148 14.1982L69.0413 14.3341L68.968 14.4493L68.8735 14.5537L68.779 14.6478L68.6847 14.7419L68.5796 14.836L68.4538 14.9091L68.3383 14.9823L68.2123 15.0345L68.0864 15.0764L67.9604 15.1181L67.8346 15.1496L67.6351 15.1808L67.4881 15.1913H67.2154L67.0681 15.1702L66.9316 15.1495L66.7952 15.118L66.6586 15.0763L66.5221 15.0343L66.3855 14.9822L66.228 14.8985L66.1127 14.8254L66.0076 14.7417L65.9027 14.6476L65.8081 14.5535L65.6612 14.3758L65.5877 14.2711L65.5245 14.1562L65.4616 14.0306L65.4091 13.9053L65.3567 13.7694L65.3147 13.6332L65.2834 13.4973L65.2518 13.2988L65.2306 13.1524V12.8698L65.2518 12.6922L65.2729 12.5354L65.2937 12.389L65.3254 12.2528L65.3674 12.1064L65.4197 11.9811L65.4722 11.8452L65.5457 11.7301L65.6087 11.6047L65.7031 11.5L65.7871 11.3956L65.8815 11.3015L65.9864 11.2179L66.1439 11.1028L66.2594 11.04L66.3853 10.9773L66.5113 10.9252L66.6373 10.8832L66.7631 10.852L66.973 10.8205L67.1725 10.7994H67.309L67.3721 10.789L67.5819 10.81L67.834 10.852L67.9598 10.8832L68.0964 10.9252L68.2224 10.9773L68.3379 11.0294L68.4637 11.1026L68.5688 11.1758L68.6738 11.2594L68.7787 11.3535L68.8732 11.4476L68.9677 11.5523L69.041 11.6672L69.1145 11.7823L69.167 11.9077L69.2196 12.033L69.2718 12.1586L69.3035 12.2839L69.3245 12.3886L69.3455 12.535L69.3666 12.6813L69.3876 12.8172L69.3877 12.9642ZM54.9013 3.87886H54.8488L54.786 3.88931L54.7124 3.89977L54.6599 3.93113L54.5969 3.95204L54.555 3.99387L54.5024 4.04614L53.8516 4.92437H56.4444L56.5074 4.91391L56.5704 4.90346L56.6229 4.88255L56.6859 4.85118L56.7384 4.80936L56.7805 4.778L56.8223 4.72572L56.8538 4.69436L57.4207 3.87886H54.9013ZM63.7716 7.37086L63.9814 7.31859L64.1285 7.26631L64.265 7.21404L64.4016 7.16176L64.5381 7.08858L64.748 6.97357L64.8739 6.90038L64.9893 6.8272L65.1153 6.74356L65.2203 6.64946L65.3254 6.54491L65.4197 6.45081L65.5457 6.30444L65.6297 6.18944L65.7031 6.07443L65.7766 5.94912L65.8501 5.8132L65.9027 5.67728L65.9656 5.52046L65.9971 5.36363L66.0391 5.21726L66.0706 5.07089L66.0917 4.92451L66.1022 4.77829L66.1127 4.62146L66.1232 4.48555L66.1337 4.34948V4.23433L66.1232 4.09842L66.1021 3.95204L66.0809 3.80567L66.0494 3.66976L66.0074 3.52339L65.9654 3.38732L65.913 3.25141L65.85 3.11535L65.787 2.99003L65.7135 2.86457L65.6295 2.73911L65.5244 2.59274L65.4301 2.47773L65.3251 2.37318L65.22 2.26863L65.1045 2.17453L64.989 2.10135L64.8736 2.01771L64.7581 1.94452L64.6323 1.87133L64.5168 1.80846L64.3908 1.74573L64.2649 1.69345L64.1284 1.64132L64.0024 1.5995L63.8658 1.55768L63.7401 1.51586L63.6034 1.48449L63.4669 1.45313L63.3303 1.43222L63.2045 1.41131L63.0679 1.40085L62.9419 1.3904L62.8054 1.37994H62.7634L62.6795 1.3904H59.4358V7.48587H63.0259L63.1728 7.47541L63.3199 7.4545L63.4669 7.4336L63.6244 7.40223L63.7716 7.37086ZM63.3937 6.33581L63.2679 6.37763L63.1418 6.409L63.0158 6.4299L62.8901 6.45081H61.0108V2.40469H62.5541L62.7012 2.41514H62.7642L62.8376 2.42545L62.9636 2.45682L63.1001 2.48818L63.226 2.53001L63.352 2.58214L63.478 2.64501L63.5933 2.70774L63.7089 2.78093L63.8243 2.86457L63.9187 2.95866L64.0027 3.03171L64.097 3.1364L64.1707 3.24095L64.2442 3.35596L64.2965 3.47096L64.3598 3.59643L64.4016 3.71143L64.4333 3.84735L64.4541 3.93113L64.4856 4.06705L64.5067 4.20297V4.58995L64.4856 4.72587L64.4646 4.86178L64.4226 4.9977L64.3911 5.11271L64.3491 5.24862L64.2966 5.38454L64.2337 5.51L64.1602 5.63546L64.0867 5.76078L64.0027 5.87593L63.9187 5.98048L63.8348 6.07443L63.7298 6.14762L63.6248 6.2208L63.5095 6.28353L63.3937 6.33581ZM62.7639 14.637L62.6485 14.679L62.4909 14.7207L62.344 14.7626L62.1867 14.8043L62.0291 14.8358L61.8821 14.867L61.7246 14.8985L61.5673 14.909L61.4307 14.9299L61.2732 14.9507L61.1263 14.9611L60.9793 14.9717H60.8218L60.6749 14.9611L60.5174 14.9507L60.318 14.9402L60.1815 14.9195L60.0347 14.8985L59.9086 14.867L59.7723 14.8148L59.6461 14.7731L59.4992 14.6999L59.3732 14.637L59.2682 14.5638L59.1528 14.4906L59.0478 14.407L58.9218 14.2711L58.8378 14.1668L58.7539 14.0621L58.6804 13.947L58.6174 13.8321L58.5649 13.7068L58.5019 13.4974L58.4706 13.351L58.4601 13.2048L58.4494 13.0689V12.9225L58.4601 12.7762L58.4706 12.6401L58.4916 12.5042L58.5124 12.3684L58.5544 12.2429L58.5964 12.1173L58.6489 12.0025L58.7329 11.8561L58.8063 11.741L58.8903 11.6261L58.9848 11.532L59.0793 11.4379L59.1844 11.3437L59.2997 11.26L59.4257 11.1868L59.5517 11.1241L59.6881 11.0615L59.8246 11.0092L59.9611 10.9673L60.1185 10.9361L60.2656 10.9151L60.4124 10.8941L60.5699 10.8836L60.7169 10.8732L60.9163 10.8836L61.0633 10.8941L61.2313 10.9151L61.3887 10.9256L61.5357 10.9568L61.6931 10.9779L61.8506 11.0092L61.9976 11.0511L62.155 11.093L62.302 11.1347L62.4594 11.1764L62.6064 11.2288L62.7534 11.2811H62.7639L62.9318 11.3437V10.1727L62.8795 10.1519L62.7639 10.11L62.7324 10.0995L62.5854 10.0472L62.4281 9.9951L62.281 9.95313L62.092 9.91145L61.9451 9.87994L61.7876 9.84872L61.6302 9.82781L61.4727 9.80676L61.1683 9.77554L61.0108 9.76508L60.8535 9.75463L60.6959 9.74417L60.5069 9.73357H60.2025L60.045 9.74417L59.8876 9.75463L59.6461 9.78614L59.4887 9.80676L59.3419 9.83827L59.1947 9.86949L59.0478 9.91145L58.9113 9.96358L58.7225 10.0368L58.5859 10.0892L58.4494 10.1624L58.3236 10.2356L58.187 10.3087L58.0715 10.3924L57.9246 10.5073L57.8091 10.6015L57.7041 10.6956L57.5886 10.8L57.4942 10.9151L57.3998 11.03L57.2632 11.1973L57.1794 11.3332L57.1058 11.4588L57.0323 11.5947L56.9798 11.7305L56.9273 11.8352L56.8748 11.9816L56.8328 12.1173L56.8013 12.2637L56.7698 12.4101L56.7384 12.6505L56.7279 12.7969V13.09L56.7384 13.2779L56.7593 13.4242L56.7908 13.5706L56.8223 13.717L56.8538 13.8633L56.9273 14.0517L56.9798 14.1874L57.0428 14.3234L57.1163 14.449L57.1897 14.5847L57.2947 14.7522L57.3893 14.867L57.4837 14.9822L57.5781 15.097L57.6936 15.2017L57.8406 15.3271L57.9561 15.4211L58.082 15.5154L58.208 15.5886L58.355 15.6827L58.4916 15.7454L58.6384 15.808L58.7854 15.8603L58.9218 15.9127L59.0688 15.9544L59.3627 16.0171L59.5202 16.038L59.6776 16.0591L59.8351 16.08L59.9926 16.0906L60.234 16.1007L60.3915 16.1112H60.7064L60.864 16.1007H61.0213L61.1893 16.08L61.3364 16.0695L61.4727 16.0591L61.6302 16.038L61.7876 16.0171L61.9451 15.9859L62.092 15.9544L62.2495 15.9127L62.4071 15.8707L62.5539 15.829L62.7009 15.7871L62.7639 15.7663L62.7744 15.7559L62.9423 15.7037L62.9528 14.5638L62.7954 14.6269L62.7639 14.637Z" fill="black"/>
<path d="M28.6367 7.75769V4.66298L26.4532 5.89668L24.3433 7.07811L22.3696 8.16544L20.5745 9.13776L18.9581 9.99508L17.5093 10.7372L16.1868 11.3752L15.0004 11.9084L13.8878 12.3788L12.8276 12.7657L11.7777 13.1106L10.7596 13.4033L9.74136 13.6438L8.7546 13.853L7.82019 14.0098L6.93855 14.1353L6.15124 14.2189L5.44777 14.2606L4.86006 14.2921L4.34554 14.2711L3.56888 14.1874L3.03336 14.0621L2.64496 13.9053L2.33018 13.6962L2.07825 13.4557L1.87865 13.1733L1.76318 12.8599L1.72119 12.4937L1.76318 12.0547L1.92078 11.553L2.17272 11.0092L2.50864 10.4551L2.92854 9.90098L3.40077 9.36777L3.88366 8.87624L4.37718 8.44772L4.91255 8.02952L5.5109 7.57995L6.13025 7.1722L6.7286 6.80627L7.34795 6.46126L7.98829 6.13715L8.62849 5.85486L9.27947 5.59348L9.89882 5.38438L10.4762 5.20664L10.9906 5.09164L11.4629 5.01845L11.9353 4.99754L12.4287 5.03936L12.6911 5.07073L12.5547 4.58979L12.3132 3.77429L12.1241 3.19926L11.9773 2.85424L11.8618 2.66605L11.7464 2.55105L11.6203 2.46741L11.4209 2.39422L11.106 2.36285L10.6546 2.38376L10.0878 2.45695L9.44743 2.59287L8.78595 2.78106L8.09312 3.03184L7.42143 3.31427L6.78094 3.60701L6.16159 3.93112L5.55289 4.27614L4.93354 4.66298L4.2932 5.09164L3.66336 5.54121L3.10699 5.99078L2.61347 6.39852L2.17272 6.81673L1.74218 7.25584L1.34343 7.73678L0.976016 8.23862L0.650596 8.75092L0.388161 9.30504L0.178067 9.85916L0.0625952 10.4236L0.0102539 10.9673L0.0522436 11.553L0.157072 12.1699L0.325176 12.7864L0.545476 13.3721L0.797414 13.9053L1.09149 14.3758L1.4379 14.8358L1.83666 15.2539L2.26705 15.6199L2.72894 15.9337L3.24346 16.1844L3.85231 16.4039L4.57648 16.6027L5.35329 16.7385L6.15124 16.8223L6.93855 16.8432L7.69436 16.8012L8.3767 16.7491L9.02754 16.6548L9.67837 16.54L10.3291 16.4144L10.9381 16.268L11.5364 16.1216L12.1663 15.9337L12.817 15.7454L13.4679 15.5363L14.1291 15.3063L14.7906 15.0554L15.452 14.7938L16.1133 14.5117L16.7851 14.1979L17.499 13.853L17.9083 13.6333L18.4437 13.351L19.1785 12.9537L20.2491 12.3788L21.7294 11.5632L23.6924 10.4863L26.0438 9.17944L28.6367 7.75769Z" fill="#4284B5"/>
</g>
<defs>
<clipPath id="clip0_21_191">
<rect width="84" height="17" fill="white"/>
</clipPath>
</defs>
</svg>
