<svg width="84" height="15" viewBox="0 0 84 15" fill="none" xmlns="http://www.w3.org/2000/svg">
<g clip-path="url(#clip0_22_247)">
<path d="M67.9221 0.558173C67.9502 0.526395 67.99 0.506834 68.0327 0.503754C68.0468 0.504626 68.0607 0.508308 68.0734 0.514578C68.0861 0.520848 68.0973 0.529576 68.1065 0.540239C68.1157 0.550901 68.1225 0.563277 68.1267 0.576621C68.1309 0.589966 68.1323 0.604004 68.1308 0.617891C68.1278 0.661919 68.1081 0.70322 68.0755 0.733556C66.611 2.52449 65.546 4.6189 65.546 7.52369C65.546 10.4285 66.6163 12.479 68.0755 14.2699C68.1081 14.3003 68.1278 14.3416 68.1308 14.3857C68.1323 14.3995 68.1309 14.4136 68.1267 14.4269C68.1225 14.4402 68.1156 14.4526 68.1065 14.4632C68.0973 14.4739 68.086 14.4826 68.0733 14.4889C68.0607 14.4951 68.0468 14.4988 68.0327 14.4997C68.0115 14.4983 67.9908 14.4927 67.9718 14.4834C67.9529 14.474 67.936 14.4611 67.9221 14.4453L61.6786 8.50771C61.5202 8.3907 61.3916 8.23906 61.3031 8.06477C61.2146 7.89049 61.1685 7.69833 61.1685 7.50351C61.1685 7.30868 61.2146 7.11653 61.3031 6.94224C61.3916 6.76795 61.5202 6.61631 61.6786 6.49931L67.9221 0.559905" fill="#ED1C24"/>
<path d="M72.719 0.0547485C70.2752 0.0547485 69.3208 3.46123 69.3208 7.52195C69.3208 11.5826 70.2752 14.9452 72.719 14.9452C74.1853 14.9452 75.4358 14.0997 75.4411 13.4051C75.4405 13.3254 75.4234 13.2467 75.3909 13.1738C75.3584 13.1008 75.3112 13.0351 75.2521 12.9807C74.5564 12.3211 74.2851 11.6598 74.2816 11.0774C74.2816 9.9654 75.2592 9.1374 76.1637 9.1374C77.4123 9.1374 78.14 10.0987 78.14 11.3423C78.14 12.521 77.6281 13.5051 77.0697 14.291C77.0489 14.3203 77.0377 14.3551 77.0376 14.3909C77.0359 14.4043 77.0369 14.4179 77.0407 14.4309C77.0445 14.4439 77.0509 14.4561 77.0596 14.4666C77.0683 14.4771 77.079 14.4857 77.0912 14.492C77.1034 14.4983 77.1168 14.5021 77.1305 14.5032C77.1754 14.4984 77.2168 14.4771 77.2463 14.4435L83.4898 8.50598C83.6483 8.38897 83.7768 8.23733 83.8654 8.06303C83.9539 7.88873 84 7.69656 84 7.50172C84 7.30689 83.9539 7.11472 83.8654 6.94042C83.7768 6.76612 83.6483 6.61448 83.4898 6.49747L77.2463 0.558174C77.2168 0.524594 77.1754 0.503289 77.1305 0.498558C77.0734 0.498558 77.0377 0.54941 77.0377 0.612593C77.0378 0.648324 77.049 0.683168 77.0699 0.712463C77.6246 1.49838 78.1401 2.48057 78.1401 3.65944C78.1401 4.90302 77.407 5.86605 76.1637 5.86605C75.2592 5.86605 74.2781 5.03632 74.2816 3.9243C74.2816 3.34362 74.5564 2.68234 75.2521 2.02106C75.3111 1.96654 75.3583 1.90083 75.3908 1.82787C75.4233 1.75492 75.4404 1.67625 75.4411 1.59662C75.4411 0.89498 74.1925 0.056481 72.719 0.056481M8.879 10.0355C8.87339 9.7512 8.93817 9.46981 9.06774 9.21559C9.19732 8.96136 9.38781 8.74193 9.6228 8.57619C10.1759 8.20987 10.833 8.02561 11.4994 8.04994C11.9425 8.04448 12.3826 8.12185 12.7962 8.27791V7.57627C12.7856 6.87463 12.5162 6.47821 11.7153 6.46955C11.4577 6.47801 11.2025 6.52167 10.9571 6.59928C10.9839 6.69835 10.9983 6.80026 10.9999 6.90276C11.0052 7.12522 10.9271 7.34183 10.7805 7.51135C10.703 7.59486 10.608 7.66095 10.5021 7.70514C10.3963 7.74933 10.282 7.77058 10.167 7.76745C10.0593 7.76632 9.95291 7.74431 9.85388 7.70268C9.75486 7.66105 9.66516 7.60062 9.58993 7.52485C9.51469 7.44908 9.4554 7.35946 9.41544 7.26113C9.37549 7.16279 9.35565 7.05767 9.35707 6.95178C9.36775 6.10105 10.4167 5.52924 11.8187 5.52751C12.9318 5.52751 13.6293 5.78707 14.0039 6.25901C14.3428 6.68345 14.3607 7.30092 14.3607 8.17447V10.4548C14.3607 10.895 14.6212 11.0142 15.1777 11.1002H15.242V11.1634C15.2098 11.7633 14.7603 12.0123 14.2787 12.0492H14.1538C13.9135 12.0558 13.6765 11.9928 13.4722 11.868C13.268 11.7433 13.1055 11.5623 13.005 11.3476C12.4913 11.782 11.8414 12.0297 11.1641 12.0492C9.8707 12.0492 8.88791 11.1897 8.88615 10.0144M48.5944 11.7528C48.4789 11.5724 48.4002 11.3716 48.3625 11.1617C48.2982 11.2335 48.2233 11.309 48.1074 11.4177C47.674 11.8213 47.0989 12.045 46.5019 12.0422C46.1963 12.0521 45.8923 11.9959 45.6112 11.8777C45.3301 11.7595 45.0788 11.5821 44.875 11.3581C44.3096 10.6933 44.3132 9.85137 44.3132 8.65507V7.50259C44.3008 7.03606 44.1526 6.87637 43.712 6.86587C43.6524 6.86629 43.5929 6.86979 43.5336 6.87637H43.4818L43.4622 6.82725C43.429 6.74822 43.4115 6.66368 43.4105 6.57818C43.4248 6.02044 44.1419 5.72216 44.563 5.63625C44.7019 5.61092 44.8426 5.5957 44.9838 5.5907C45.1252 5.58033 45.2671 5.60232 45.3983 5.65496C45.5296 5.7076 45.6466 5.78945 45.7403 5.89408C45.9022 6.12002 45.9808 6.39353 45.9632 6.66939L45.9525 8.63754C45.9525 9.36374 46.0042 9.90752 46.1684 10.2583C46.3324 10.6092 46.584 10.7687 47.0441 10.7722C47.2437 10.7849 47.443 10.7424 47.6193 10.6494C47.7956 10.5564 47.9418 10.4166 48.0414 10.2461C48.2304 9.8906 48.3214 9.49265 48.3054 9.09185V7.49902C48.2929 7.03249 48.1431 6.8729 47.7043 6.86241C47.6446 6.86276 47.5851 6.86626 47.5258 6.8729H47.4723L47.4527 6.82378C47.4183 6.75374 47.3965 6.67837 47.3884 6.60101C47.4028 6.04317 48.1199 5.74498 48.5426 5.65908C48.6816 5.63366 48.8224 5.6184 48.9637 5.61342C49.1053 5.60322 49.2473 5.62529 49.3788 5.67793C49.5103 5.73057 49.6277 5.81235 49.7218 5.9169C49.8851 6.14224 49.9645 6.41605 49.9466 6.69222C49.9466 6.91846 49.9251 7.31844 49.9251 8.99534C49.9251 9.69698 49.9127 10.0812 49.9127 10.1951C49.9233 10.6775 50.0909 10.8967 50.5441 10.8967H50.7511L50.7707 10.9459C50.8034 11.0226 50.8209 11.1048 50.8224 11.188C50.8046 11.7318 50.0856 11.951 49.6682 12.0317C49.538 12.0556 49.4063 12.0702 49.274 12.0755C49.1449 12.0853 49.0154 12.0632 48.8973 12.0111C48.7792 11.959 48.6763 11.8786 48.5979 11.7773M25.8451 8.9024C25.8161 8.01246 26.1354 7.14548 26.737 6.48005C27.0411 6.1688 27.4079 5.92333 27.814 5.75932C28.22 5.59531 28.6564 5.51636 29.0952 5.52751C29.4601 5.5133 29.8238 5.57572 30.1622 5.71063C30.5005 5.84553 30.8057 6.04982 31.0575 6.30986C31.4631 6.75012 31.6887 7.32246 31.6907 7.91654C31.6959 8.22201 31.6222 8.52379 31.4766 8.79366L31.457 8.82872H27.5255C27.5915 9.95654 28.3211 10.7459 29.593 10.7582C29.8905 10.7602 30.1852 10.7012 30.4583 10.5849C30.7313 10.4686 30.9767 10.2977 31.1787 10.0829L31.2215 10.0302L31.2769 10.0706C31.3565 10.1285 31.4198 10.2055 31.4607 10.2942C31.5016 10.3829 31.5188 10.4805 31.5106 10.5776C31.5106 11.2283 30.731 12.0614 29.0132 12.0614C28.5935 12.0615 28.178 11.9795 27.7908 11.8204C27.4036 11.6612 27.0525 11.4279 26.7577 11.1342C26.4629 10.8404 26.2305 10.492 26.0738 10.1092C25.9171 9.72638 25.8393 9.31676 25.845 8.90413M39.8179 12.0527C39.3951 12.0579 38.9754 11.9809 38.583 11.8262C38.1906 11.6714 37.8331 11.442 37.531 11.1511C37.2198 10.8384 36.9754 10.4677 36.8121 10.0607C36.6488 9.65372 36.5699 9.21873 36.5802 8.78133C36.5742 8.3539 36.6552 7.9296 36.8184 7.53339C36.9816 7.13719 37.2238 6.77708 37.5306 6.47424C37.8374 6.1714 38.2027 5.93194 38.605 5.76995C39.0073 5.60796 39.4385 5.52671 39.8732 5.53098C40.3029 5.51964 40.7305 5.59295 41.1309 5.7466C41.5313 5.90024 41.8963 6.13112 42.2046 6.42563C42.6776 6.88516 43.0001 7.47319 43.1307 8.11424C43.2614 8.75529 43.1943 9.42012 42.9379 10.0234C42.6816 10.6266 42.2478 11.1408 41.6922 11.4999C41.1365 11.859 40.4845 12.0466 39.8196 12.0387L39.8179 12.0527ZM51.8998 11.8632C51.6252 11.7897 51.4486 11.6423 51.4503 11.4195C51.4545 11.3212 51.4801 11.2249 51.5252 11.137L51.5395 11.1054H51.5733C51.7298 11.0753 51.8769 11.0099 52.0033 10.9144C52.1674 10.7828 52.2299 10.5986 52.2299 10.0812V7.4658C52.2174 7.02729 52.1157 6.87474 51.7446 6.86414C51.6458 6.86573 51.5472 6.87631 51.4503 6.89573L51.3932 6.90623L51.3718 6.85364C51.3353 6.76496 51.316 6.67037 51.3148 6.57472C51.3237 6.04847 51.9034 5.78534 52.2923 5.66611C52.4342 5.62153 52.5821 5.59787 52.7311 5.59589C53.2662 5.59589 53.5481 5.96959 53.6694 6.45019C54.0155 5.89061 54.5613 5.52048 55.1125 5.51875C55.6245 5.51875 56.1382 5.84852 56.14 6.47291C56.1492 6.70412 56.0651 6.92955 55.9061 7.10008C55.7471 7.27061 55.5259 7.37243 55.2909 7.38336C55.1013 7.38766 54.9162 7.32701 54.7671 7.21179C54.6181 7.09657 54.5144 6.93396 54.4739 6.75184C54.1742 6.84834 53.7497 7.2202 53.7461 8.50598V10.0845C53.7461 10.6002 53.821 10.7862 53.9691 10.916C54.1473 11.0147 54.3428 11.0796 54.5453 11.1072H54.5791L54.5934 11.1388C54.6426 11.2336 54.6706 11.3377 54.6755 11.444C54.6755 11.6544 54.5167 11.7948 54.2599 11.8684C53.8809 11.9531 53.4922 11.9879 53.1039 11.972C52.6995 11.9869 52.2947 11.9504 51.8998 11.8632ZM32.8128 11.8631C32.538 11.7896 32.3597 11.6404 32.3597 11.4176C32.363 11.3199 32.388 11.2242 32.4327 11.1369L32.447 11.1053H32.4827C32.6404 11.0752 32.7892 11.0104 32.918 10.916C33.0767 10.7827 33.141 10.5985 33.1445 10.0828V6.6484L32.2097 6.61681L32.1938 6.57645C32.1484 6.4746 32.1241 6.36489 32.1224 6.25371C32.1218 6.17843 32.1368 6.10382 32.1666 6.03448C32.1964 5.96513 32.2403 5.9025 32.2956 5.85044C32.3509 5.79837 32.4165 5.75796 32.4882 5.7317C32.56 5.70543 32.6364 5.69386 32.7129 5.6977H33.1178V5.3188C33.1178 4.40316 33.2961 3.88221 33.5281 3.53307C33.8848 2.97706 34.5253 2.5947 35.4903 2.5947C36.7015 2.5947 37.7183 3.14898 37.7237 4.04006C37.7275 4.1517 37.7086 4.26296 37.668 4.36728C37.6274 4.4716 37.5659 4.56686 37.4873 4.64746C37.4086 4.72806 37.3144 4.79236 37.2101 4.83657C37.1057 4.88077 36.9935 4.90399 36.8799 4.90485C36.6651 4.90178 36.4597 4.81721 36.3068 4.6688C36.1539 4.52039 36.0652 4.31963 36.0593 4.10844C36.0615 3.94775 36.1097 3.79092 36.1985 3.65597C36.0229 3.53317 35.8108 3.47142 35.5955 3.48049C35.2191 3.48049 35.014 3.61032 34.882 3.82249C34.7464 4.09479 34.685 4.39699 34.7036 4.69961V5.68364H36.3091L36.3269 5.72572C36.3723 5.82994 36.396 5.94209 36.3965 6.0555C36.4018 6.21057 36.3468 6.3618 36.2428 6.47844C36.1387 6.59508 35.9934 6.66839 35.8364 6.68345C35.7177 6.69341 35.5986 6.69749 35.4795 6.69568C35.212 6.69568 34.9445 6.67642 34.7518 6.67296V10.0688C34.7518 10.5828 34.8392 10.7705 34.9979 10.9003C35.1567 11.0301 35.5331 11.0757 35.6526 11.0915H35.6865L35.7008 11.1248C35.7416 11.2056 35.7641 11.2942 35.7668 11.3844C35.7668 11.6195 35.5723 11.7668 35.278 11.8457C34.8649 11.9365 34.4416 11.9749 34.0186 11.9598C33.6124 11.975 33.2058 11.9384 32.8092 11.851M21.6067 11.851C21.3337 11.7773 21.1571 11.63 21.159 11.4072C21.1638 11.3095 21.1892 11.2139 21.2338 11.1265L21.2481 11.0949H21.2838C21.4415 11.0647 21.5902 11 21.719 10.9055C21.8778 10.7722 21.9438 10.5881 21.9456 10.0724V7.4658C21.9331 7.02729 21.8278 6.87474 21.4586 6.86414C21.3597 6.86573 21.2612 6.87631 21.1643 6.89573L21.1073 6.90623L21.0858 6.85364C21.0476 6.76355 21.0276 6.66702 21.0269 6.56942C21.0359 6.04317 21.6156 5.78534 22.0081 5.66611C22.1476 5.62176 22.2931 5.5981 22.4397 5.59589C22.9749 5.59589 23.2603 5.96429 23.3852 6.43786C23.7419 5.88531 24.2879 5.52048 24.8318 5.51702C25.3367 5.51702 25.8558 5.84496 25.8575 6.46945C25.8667 6.7018 25.7817 6.92823 25.6211 7.09894C25.4605 7.26965 25.2376 7.37067 25.0013 7.37979C24.8126 7.38414 24.6282 7.32337 24.4803 7.20803C24.3324 7.09269 24.2302 6.93006 24.1915 6.74837C23.8882 6.84661 23.4583 7.21674 23.453 8.50241V10.0812C23.453 10.5968 23.5314 10.7828 23.6884 10.9125C23.8652 11.0128 24.0604 11.0777 24.2628 11.1037H24.2967L24.3127 11.1353C24.3604 11.2292 24.3871 11.3321 24.3913 11.437C24.3913 11.6475 24.2325 11.7878 23.9738 11.8632C23.5938 11.9485 23.2039 11.9839 22.8144 11.9685C22.4099 11.9836 22.0051 11.947 21.6102 11.8598M16.3158 11.8598C16.0429 11.7861 15.8681 11.6387 15.8681 11.416C15.8721 11.3184 15.897 11.2227 15.9412 11.1353L15.9555 11.1037H15.9911C16.1489 11.0735 16.2976 11.0088 16.4264 10.9144C16.5852 10.781 16.6512 10.5968 16.653 10.0812V7.4658C16.6387 7.02729 16.5352 6.87474 16.1642 6.86414C16.0653 6.86573 15.9668 6.87631 15.8699 6.89573L15.8128 6.90623L15.7913 6.85364C15.7532 6.76355 15.7332 6.66702 15.7325 6.56942C15.7414 6.04317 16.3211 5.78534 16.7136 5.66611C16.8526 5.62185 16.9974 5.59819 17.1435 5.59589C17.6787 5.59589 17.9641 5.96429 18.089 6.43612C18.4457 5.88531 18.9916 5.52048 19.5357 5.51691C20.0404 5.51691 20.5613 5.84506 20.5632 6.47118C20.5724 6.70355 20.4873 6.93001 20.3268 7.10074C20.1662 7.27147 19.9432 7.37251 19.7069 7.38163C19.5182 7.38566 19.3341 7.32476 19.1862 7.20945C19.0383 7.09415 18.936 6.93167 18.897 6.7501C18.5938 6.84834 18.1639 7.21847 18.1603 8.50424V10.0828C18.1603 10.5986 18.2369 10.7845 18.3957 10.9144C18.5725 11.0148 18.7677 11.0798 18.9702 11.1055H19.0058L19.0201 11.1371C19.0684 11.2309 19.0958 11.3338 19.1003 11.4388C19.1003 11.6493 18.9398 11.7897 18.6811 11.8651C18.3011 11.9503 17.9112 11.9857 17.5217 11.9702C17.1172 11.9852 16.7125 11.9487 16.3176 11.8615M38.3944 8.60422C38.3944 10.3144 39.1543 11.0511 39.8963 11.0599C40.7437 11.0599 41.3573 10.3231 41.3628 8.88314C41.3628 8.13055 41.1932 7.52888 40.9167 7.129C40.8046 6.94184 40.6455 6.78613 40.4547 6.67678C40.2638 6.56743 40.0476 6.50811 39.8268 6.5045C38.9456 6.5045 38.3997 7.28858 38.3997 8.62001M11.7902 8.98128C11.0909 8.98128 10.6217 9.31105 10.6181 9.9496C10.6181 10.5529 11.0357 10.9582 11.6885 10.9617C11.9061 10.9539 12.1193 10.8998 12.3136 10.8032C12.5079 10.7067 12.6787 10.5698 12.8141 10.4022V9.52506C12.8052 9.45037 12.7774 9.37908 12.7331 9.31777C12.6889 9.25646 12.6296 9.20712 12.5608 9.17429C12.325 9.04792 12.0585 8.98724 11.7902 8.9988M29.8819 7.96393C30.0067 7.96393 30.0406 7.93407 30.0602 7.89382C30.0873 7.82092 30.0977 7.74304 30.0906 7.66575C30.0885 7.51258 30.0556 7.36133 29.9937 7.22074C29.9319 7.08016 29.8423 6.95302 29.7302 6.84667C29.618 6.74033 29.4856 6.65688 29.3405 6.60116C29.1954 6.54544 29.0405 6.51855 28.8848 6.52203C27.9732 6.52203 27.6039 7.23946 27.5468 7.96403H29.8748L29.8819 7.96393ZM1.81142 10.9284C1.04243 10.1529 0.546638 9.0198 0.546638 7.60949C0.522486 6.39696 0.969003 5.22092 1.79535 4.32062C2.15938 3.92691 2.60227 3.61149 3.09621 3.39416C3.59015 3.17684 4.12445 3.06231 4.66556 3.05777C6.61175 3.05777 7.98524 4.39959 7.99239 5.55737C7.99239 6.17656 7.59287 6.65543 7.05407 6.65716C6.79643 6.66112 6.54697 6.56825 6.3566 6.3975C6.25913 6.30444 6.18246 6.19243 6.13148 6.0686C6.0805 5.94478 6.05633 5.81186 6.06051 5.67834C6.06343 5.53996 6.09408 5.40352 6.1507 5.27681C6.20732 5.1501 6.28881 5.03561 6.39048 4.93991C6.12652 4.4961 5.61995 4.14533 4.82609 4.14533C4.15184 4.14533 3.57738 4.4961 3.17423 5.09603C2.77109 5.69586 2.52319 6.57115 2.52319 7.60093C2.52319 8.63071 2.77472 9.49347 3.19569 10.0969C3.61666 10.7004 4.1964 11.0424 4.87066 11.0441C5.66451 11.0441 6.17109 10.6933 6.42624 10.2478C6.22235 10.0551 6.10431 9.79085 6.09792 9.51283C6.09393 9.37904 6.11819 9.2459 6.16917 9.1218C6.22015 8.99771 6.29674 8.88535 6.39411 8.79183C6.58442 8.62079 6.83378 8.52737 7.09158 8.53054C7.62676 8.53054 8.02804 9.00767 8.02991 9.62503C8.02991 10.788 6.64916 12.1212 4.70297 12.1264C4.1637 12.1273 3.62974 12.0217 3.13273 11.8159C2.63573 11.6101 2.18581 11.3083 1.80965 10.9283M1.80965 10.9283C1.04078 10.153 0.544876 9.0199 0.544876 7.60959C0.520724 6.39706 0.967241 5.22102 1.79359 4.32072C2.15761 3.92699 2.6005 3.61155 3.09443 3.39421C3.58837 3.17687 4.12268 3.06232 4.6638 3.05777C6.60988 3.05777 7.98348 4.39959 7.99053 5.55737C7.99053 6.17656 7.59101 6.65543 7.05231 6.65716C6.79467 6.66112 6.5452 6.56825 6.35483 6.3975C6.25737 6.30444 6.1807 6.19243 6.12972 6.0686C6.07874 5.94478 6.05457 5.81186 6.05874 5.67834C6.06167 5.53996 6.09231 5.40352 6.14894 5.27681C6.20556 5.1501 6.28704 5.03561 6.38872 4.93991C6.12652 4.4961 5.61995 4.14533 4.82609 4.14533C4.15184 4.14533 3.57738 4.4961 3.17423 5.09603C2.77109 5.69586 2.52319 6.57115 2.52319 7.60093C2.52319 8.63071 2.77472 9.49347 3.19569 10.0969C3.61666 10.7004 4.1964 11.0424 4.87066 11.0441C5.66451 11.0441 6.17109 10.6933 6.42624 10.2478C6.22235 10.0551 6.10431 9.79085 6.09792 9.51283C6.09393 9.37904 6.11819 9.2459 6.16917 9.1218C6.22015 8.99771 6.29674 8.88535 6.39411 8.79183C6.58442 8.62079 6.83378 8.52737 7.09158 8.53054C7.62676 8.53054 8.02804 9.00767 8.02991 9.62503C8.02991 10.788 6.64916 12.1212 4.70297 12.1264C4.1637 12.1273 3.62974 12.0217 3.13273 11.8159C2.63573 11.6101 2.18581 11.3083 1.80965 10.9283ZM1.80965 10.9283C1.04078 10.153 0.544876 9.0199 0.544876 7.60959C0.520724 6.39706 0.967241 5.22102 1.79359 4.32072C2.15761 3.92699 2.6005 3.61155 3.09443 3.39421C3.58837 3.17687 4.12268 3.06232 4.6638 3.05777C6.60988 3.05777 7.98348 4.39959 7.99053 5.55737C7.99053 6.17656 7.59101 6.65543 7.05231 6.65716C6.79467 6.66112 6.5452 6.56825 6.35483 6.3975C6.25737 6.30444 6.1807 6.19243 6.12972 6.0686C6.07874 5.94478 6.05457 5.81186 6.05874 5.67834C6.06167 5.53996 6.09231 5.40352 6.14894 5.27681C6.20556 5.1501 6.28704 5.03561 6.38872 4.93991C6.12652 4.4961 5.61995 4.14533 4.82609 4.14533C4.15184 4.14533 3.57738 4.4961 3.17423 5.09603C2.77109 5.69586 2.52319 6.57115 2.52319 7.60093C2.52319 8.63071 2.77472 9.49347 3.19569 10.0969C3.61666 10.7004 4.1964 11.0424 4.87066 11.0441C5.66451 11.0441 6.17109 10.6933 6.42624 10.2478C6.22235 10.0551 6.10431 9.79085 6.09792 9.51283C6.09393 9.37904 6.11819 9.2459 6.16917 9.1218C6.22015 8.99771 6.29674 8.88535 6.39411 8.79183C6.58442 8.62079 6.83378 8.52737 7.09158 8.53054C7.62676 8.53054 8.02804 9.00767 8.02991 9.62503C8.02991 10.788 6.64916 12.1212 4.70297 12.1264C4.1637 12.1273 3.62974 12.0217 3.13273 11.8159C2.63573 11.6101 2.18581 11.3083 1.80965 10.9283Z" fill="#005BAB"/>
</g>
<defs>
<clipPath id="clip0_22_247">
<rect width="84" height="15" fill="white"/>
</clipPath>
</defs>
</svg>
